<svg version="1.1" id="Layer_1" xmlns="http://www.w3.org/2000/svg" xmlns:xlink="http://www.w3.org/1999/xlink" x="0px" y="0px"
	 width="100%" viewBox="0 0 660 265" enable-background="new 0 0 660 265" xml:space="preserve">
<path fill="#FFFFFF" opacity="1.000000" stroke="none"
	d="
M413.242767,144.000137
	C413.242767,153.826141 412.843079,163.173019 413.328796,172.473648
	C414.245514,190.028198 401.307037,208.345139 378.867340,210.890121
	C362.409180,212.756744 347.190247,209.284790 336.605713,195.153336
	C333.458221,190.951157 331.898407,185.559814 329.001801,179.422256
	C336.879517,179.422256 343.114441,179.261581 349.325500,179.574493
	C350.408020,179.629059 351.587494,181.555801 352.385559,182.828903
	C356.799286,189.869827 366.096802,193.933517 374.933167,192.581451
	C383.491516,191.271896 390.199127,187.377838 392.262299,178.465454
	C393.278534,174.075470 392.923523,169.368027 393.221893,164.239502
	C372.954285,181.008835 347.061981,172.456863 336.439209,158.998917
	C322.921143,141.872879 324.378723,116.586746 339.727783,101.249046
	C351.663971,89.321678 377.899811,84.557892 393.673706,101.225670
	C393.673706,98.149986 393.673706,95.436516 393.673706,92.359528
	C400.253357,92.359528 406.460144,92.359528 413.242767,92.359528
	C413.242767,109.347610 413.242767,126.423866 413.242767,144.000137
M348.574280,132.462585
	C348.690033,133.446564 348.780853,134.434219 348.925385,135.413956
	C350.552429,146.444427 358.514923,154.067902 369.122437,154.761459
	C380.156219,155.482895 389.069092,149.503952 391.993530,139.419144
	C395.253845,128.176102 391.011627,117.049461 381.605377,111.793190
	C368.398407,104.413033 348.735016,112.721062 348.574280,132.462585
z"/>
<path fill="#FFFFFF" opacity="1.000000" stroke="none"
	d="
M164.163544,167.856445
	C141.377243,144.809235 147.373169,105.960976 175.775055,93.876534
	C190.978409,87.407799 206.337479,88.533081 219.432449,99.386650
	C231.829071,109.661392 235.866959,123.491592 233.145782,139.302490
	C233.092224,139.613708 232.866302,139.895279 232.524261,140.589661
	C222.598801,140.589661 212.476089,140.589661 202.353378,140.589661
	C192.397003,140.589661 182.440613,140.589661 172.506393,140.589661
	C172.006989,150.915237 181.074585,160.198990 191.840042,160.915558
	C200.397430,161.485138 207.537827,158.979782 212.865540,151.960236
	C213.555801,151.050797 214.882980,150.116913 215.944397,150.081894
	C221.566696,149.896500 227.198349,149.994827 232.878250,149.994827
	C230.510941,164.676605 220.211273,174.902924 204.526855,177.919739
	C189.733871,180.765076 176.112213,178.220505 164.163544,167.856445
M201.464981,124.919556
	C204.905441,124.919556 208.345901,124.919556 211.800674,124.919556
	C211.311951,114.695824 203.873596,107.627289 193.652725,107.087173
	C184.497177,106.603363 173.693909,113.076889 172.626053,124.919556
	C181.924484,124.919556 191.199066,124.919556 201.464981,124.919556
z"/>
<path fill="#FFFFFF" opacity="1.000000" stroke="none"
	d="
M561.754517,176.944214
	C535.237366,183.941162 511.627350,171.234070 505.362213,146.912567
	C498.894897,121.806358 512.169922,97.575165 535.661316,91.606750
	C565.308167,84.074432 590.961914,106.891609 587.181152,137.269257
	C586.743652,140.784790 584.813232,140.604492 582.390137,140.600983
	C565.398743,140.576370 548.407349,140.587982 531.415955,140.588013
	C529.604919,140.588013 527.793823,140.588013 525.999878,140.588013
	C525.574097,150.808960 534.128357,159.928131 544.757690,160.863678
	C553.452087,161.628937 560.848877,159.256760 566.319458,152.006332
	C567.064209,151.019302 568.607544,150.131622 569.815796,150.084442
	C575.128601,149.876999 580.454102,149.994919 585.761108,149.994919
	C586.396729,160.670303 577.007141,171.252563 561.754517,176.944214
M563.849548,117.837326
	C558.565247,108.960770 550.539551,105.399185 541.194763,107.783707
	C532.576782,109.982765 526.631470,116.751495 526.344238,124.605423
	C539.383972,124.605423 552.424683,124.605423 565.657104,124.605423
	C565.342163,122.969383 565.139771,121.663055 564.823669,120.384819
	C564.667480,119.753242 564.301514,119.173523 563.849548,117.837326
z"/>
<path fill="#FFFFFF" opacity="1.000000" stroke="none"
	d="
M91.076569,93.900803
	C114.335709,84.016701 136.976089,98.728683 137.001587,123.390282
	C137.019669,140.877350 136.999405,158.364471 136.987671,175.851562
	C136.987457,176.178375 136.880493,176.505142 136.757233,177.209808
	C130.283691,177.209808 123.729401,177.209808 116.411728,177.209808
	C116.411728,175.601913 116.411743,173.850677 116.411736,172.099457
	C116.411667,157.277039 116.506622,142.453842 116.382195,127.632462
	C116.278053,115.227341 107.256767,107.901627 95.193474,110.180214
	C87.425331,111.647507 82.187759,118.573296 82.122070,127.905678
	C82.018906,142.560822 82.094498,157.217239 82.094391,171.873108
	C82.094376,173.530014 82.094383,175.186920 82.094383,177.215637
	C75.351677,177.215637 68.815125,177.215637 62.013367,177.215637
	C62.013367,149.265762 62.013367,121.363701 62.013367,93.183228
	C68.230530,93.183228 74.452415,93.183228 80.897141,93.183228
	C80.897141,95.964470 80.897141,98.588562 80.897141,101.384979
	C84.320709,98.825356 87.520241,96.433235 91.076569,93.900803
z"/>
<path fill="#03D6C6" opacity="1.000000" stroke="none"
	d="
M251.289124,81.702896
	C264.613525,100.000824 277.727936,118.008392 290.992310,136.221878
	C280.018982,151.332596 269.127533,166.330032 258.236755,181.327942
	C253.349365,188.058456 248.521347,194.833572 243.522781,201.480453
	C242.630661,202.666763 241.062698,204.051788 239.758423,204.102585
	C233.006744,204.365448 226.239365,204.224762 218.471497,204.224762
	C235.209610,181.168808 251.388809,158.882751 267.781006,136.303314
	C251.485611,113.863014 235.194580,91.428734 218.214676,68.045799
	C226.185532,68.045799 233.212494,67.948753 240.230499,68.155647
	C241.226227,68.184998 242.362061,69.551872 243.117691,70.540695
	C245.844406,74.108932 248.436325,77.780182 251.289124,81.702896
z"/>
<path fill="#FFFFFF" opacity="1.000000" stroke="none"
	d="
M469.000916,103.000000
	C469.000916,87.858292 469.000916,73.216583 469.000916,58.288406
	C475.949615,58.288406 482.688995,58.288406 489.715240,58.288406
	C489.715240,97.957901 489.715240,137.690659 489.715240,177.711563
	C483.050446,177.711563 476.311096,177.711563 469.000916,177.711563
	C469.000916,153.018402 469.000916,128.259201 469.000916,103.000000
z"/>
<path fill="#FFFFFF" opacity="1.000000" stroke="none"
	d="
M451.999084,102.028488
	C451.999084,127.494072 451.999084,152.464981 451.999084,177.717133
	C444.705444,177.717133 437.633118,177.717133 430.279419,177.717133
	C430.279419,149.363724 430.279419,120.962852 430.279419,92.281021
	C437.299469,92.281021 444.370636,92.281021 451.999084,92.281021
	C451.999084,95.319809 451.999084,98.426811 451.999084,102.028488
z"/>
<path fill="#04D6C6" opacity="1.000000" stroke="none"
	d="
M317.593384,99.586136
	C309.980133,110.050743 302.588257,120.228867 294.836792,130.902115
	C291.253906,125.989685 287.846710,121.587730 284.813477,116.941643
	C284.173431,115.961258 284.377075,113.727226 285.089355,112.682808
	C289.199982,106.655266 293.492798,100.744240 297.946381,94.965210
	C298.782013,93.880875 300.607910,93.041771 302.005798,92.997208
	C308.460724,92.791389 314.925873,92.906357 322.319458,92.906357
	C320.565277,95.395950 319.190002,97.347794 317.593384,99.586136
z"/>
<path fill="#07D7C7" opacity="1.000000" stroke="none"
	d="
M295.946533,143.215759
	C304.223511,154.604660 312.296875,165.715042 320.969635,177.650330
	C313.192749,177.650330 306.319366,177.766022 299.457367,177.538483
	C298.289185,177.499771 296.895905,176.199097 296.074799,175.123886
	C292.349579,170.245911 288.881927,165.170532 285.132050,160.312485
	C283.530548,158.237717 283.563293,156.741592 285.218933,154.696976
	C288.034119,151.220398 290.464752,147.434570 293.204529,143.892792
	C293.675446,143.284027 294.878174,143.241394 295.946533,143.215759
z"/>
</svg>