<svg xmlns="http://www.w3.org/2000/svg" width="205" height="77" viewBox="0 0 205 77" fill="none">
  <path d="M4.17153 12.6196C4.22295 12.5768 4.27151 12.5358 4.32341 12.493C4.2996 12.4887 4.27818 12.4868 4.26008 12.4868C4.17677 12.4868 4.1482 12.5301 4.17153 12.6196Z" fill="url(#paint0_linear_436_5194)"/>
  <path d="M199.094 12.4925C199.146 12.5354 199.195 12.5763 199.247 12.6191C199.27 12.5296 199.24 12.4863 199.157 12.4863C199.139 12.4863 199.118 12.4882 199.094 12.4925Z" fill="url(#paint1_linear_436_5194)"/>
  <path d="M36.7219 15.6517C36.7219 15.692 36.7091 15.735 36.7039 15.7757C36.7115 17.7906 36.7371 19.8087 36.7143 21.8236C36.7091 22.2807 36.8502 22.4856 37.4137 22.5731C45.2375 23.7925 51.5929 29.1405 52.8738 35.928C53.7118 40.3769 52.5563 44.4653 49.3533 48.1354C48.9814 48.5584 48.7741 48.4855 48.4405 48.178C47.5977 47.401 46.7365 46.6387 45.9113 45.8513C45.5706 45.5224 45.1987 45.3942 44.6711 45.3984C41.9237 45.4155 39.1745 45.4003 36.4271 45.3961H32.4192C33.8567 46.6496 35.1557 47.7791 36.4527 48.9086C38.0644 50.2595 39.669 51.62 41.2934 52.9629C41.6753 53.2766 41.6781 53.4365 41.1425 53.597C39.9122 53.966 38.6923 54.3697 37.391 54.5258C36.8549 54.5897 36.7143 54.7752 36.7191 55.2195C36.7446 57.2136 36.7167 59.2052 36.7091 61.1997C36.8118 61.6904 36.4579 62.3609 36.8757 62.6363C37.2831 62.9027 38.0213 62.5848 38.6104 62.5019C40.7194 62.2071 42.7466 61.6649 44.7529 61.063C46.0088 60.4989 47.3465 60.066 48.5484 59.4149C48.7944 59.28 48.9534 59.3396 49.1323 59.4934C49.7967 60.0636 50.4653 60.6272 51.1339 61.1931C51.8953 61.804 52.6793 62.3969 53.4123 63.031C53.7606 63.3324 54.1221 63.4351 54.609 63.4351C58.4196 63.4351 62.2279 63.4564 66.0385 63.4649C66.2765 63.4649 66.5301 63.5288 66.9555 63.3111C66.0792 62.6344 65.2563 61.998 64.4315 61.3597C61.7537 59.1645 59.0854 56.9595 56.3849 54.7818C55.9235 54.4104 55.8672 54.1686 56.2978 53.7526C58.4603 51.6626 59.9338 49.2242 61.0667 46.6709C63.0526 42.1959 63.3015 37.5846 61.979 32.9559C60.434 27.5478 57.0535 23.0667 51.8437 19.5584C49.5913 18.0409 47.0772 16.8986 44.4558 15.9058C42.4953 15.3101 40.4914 14.8487 38.4415 14.5265C37.9347 14.4456 37.5812 14.3897 37.3338 14.3897C36.765 14.3897 36.7536 14.685 36.7219 15.6517Z" fill="url(#paint2_linear_436_5194)"/>
  <path d="M31.3854 14.2278C31.0883 14.2708 30.7807 14.2666 30.4835 14.3092C23.5437 15.3081 17.5962 17.8449 12.8576 22.2408C7.8063 26.9292 5.50044 32.4778 5.36179 38.7121C5.35186 41.9573 6.09477 45.0808 7.64258 48.0354C10.6152 53.6995 15.4076 57.9483 22.1341 60.6379C25.0021 61.7844 28.0182 62.5065 31.1701 62.8288C32.2362 62.9376 32.5107 62.7327 32.5159 61.8573C32.5234 60.6592 32.5206 59.4597 32.5159 58.262C32.5107 57.4424 32.3436 57.2693 31.3651 57.1562C27.9387 56.7629 24.748 55.8175 21.8733 54.2186C14.2668 49.9845 10.1898 42.6107 12.1862 34.6938C12.9243 31.7671 14.3874 29.1172 16.6479 26.7858C19.779 23.5534 23.795 21.4548 28.5818 20.3618C30.7603 19.8644 30.7476 19.8791 30.7372 21.6834C30.7348 22.1145 30.5294 22.2512 30.0709 22.3454C20.4916 24.2945 13.5494 32.0638 14.9023 40.5543C15.4971 44.2929 17.36 47.5229 20.4661 50.213C23.3544 52.7129 26.9086 54.2886 31.0343 54.9208C31.8544 55.0467 32.3517 54.8716 32.4771 54.3639C32.5949 53.8855 32.2925 53.6356 31.411 53.4837C26.8366 52.7025 23.0776 50.7917 20.2408 47.7127C17.3014 44.5234 16.0763 40.8812 16.6171 36.8799C16.9195 34.6469 17.7163 32.5337 19.2055 30.6139C22.152 26.8156 26.2191 24.4118 31.5799 23.5771C32.1951 23.481 32.513 23.2099 32.5107 22.6804C32.5078 21.5447 32.5258 20.4091 32.5031 19.273C32.4898 18.6413 32.0673 18.3616 31.3107 18.4576C27.9415 18.8887 24.7456 19.7253 21.7962 21.1965C12.5888 25.7931 8.00409 34.5807 10.6152 43.2491C13.027 51.2465 19.3205 56.1506 28.8203 58.2814C29.4406 58.4201 30.3269 58.2407 30.6321 58.6974C30.9141 59.118 30.714 59.763 30.7163 60.3095C30.7215 61.343 30.7163 61.3515 29.4662 61.1333C22.4033 59.9016 16.717 56.8741 12.3731 52.0684C10.3279 49.8033 8.93676 47.2542 8.04242 44.566C7.08894 41.7032 6.91481 38.7353 7.335 35.7594C7.76324 32.7386 8.83691 29.8814 10.6516 27.2538C12.163 25.0605 14.0624 23.1011 16.3583 21.4189C19.7714 18.9185 23.6279 17.1228 28.0613 16.2351C29.2352 15.9999 30.4324 15.8418 31.6187 15.6497C32.2107 15.5541 32.5206 15.2338 32.4563 14.7577C32.4009 14.3489 32.0966 14.2041 31.6939 14.2041C31.596 14.2041 31.4924 14.2126 31.3854 14.2278Z" fill="url(#paint3_linear_436_5194)"/>
  <path d="M167.459 50.9737C167.457 51.4592 167.707 51.4767 168.134 51.472C169.433 51.4555 170.734 51.4275 172.029 51.4801C172.798 51.5118 173.056 51.3594 173.046 50.6383C172.995 47.2232 173.019 43.8073 173.031 40.3922C173.032 40.1528 172.884 39.8741 173.192 39.6309C179.252 43.988 185.304 48.3395 191.381 52.7085C191.499 52.6124 191.545 52.5921 191.545 52.5717C191.553 45.4175 191.554 38.2629 191.574 31.1082C191.576 30.6294 191.313 30.6029 190.886 30.6071C189.52 30.6208 188.151 30.6483 186.787 30.5976C186.084 30.5712 185.951 30.7869 185.955 31.3429C185.983 34.7873 185.973 38.2321 185.961 41.677C185.96 41.914 186.106 42.1942 185.798 42.4222C179.728 38.057 173.67 33.6999 167.472 29.2415C167.472 36.6171 167.477 43.7954 167.459 50.9737ZM70.1388 30.5981C68.9132 30.654 67.6786 30.653 66.4526 30.5976C65.7324 30.565 65.5512 30.7406 65.5592 31.3628C65.5994 34.5701 65.5781 37.7774 65.5781 40.9851C65.5781 44.2511 65.5819 47.5175 65.5725 50.7835C65.5715 51.1905 65.5261 51.482 66.225 51.4801C73.8055 51.4564 81.3865 51.4592 88.967 51.4772C89.5775 51.4786 89.6957 51.2998 89.6792 50.8237C89.6418 49.7061 89.6196 48.5851 89.6858 47.4702C89.7251 46.8149 89.5211 46.6379 88.7404 46.6422C86.2519 46.6573 83.7634 46.6573 81.2748 46.6568C78.2653 46.6568 75.2563 46.6568 72.2478 46.6828C71.2602 46.6918 71.1022 46.4174 71.1088 45.6546C71.1471 40.9175 71.1074 36.1799 71.1495 31.4428C71.1556 30.7879 70.9531 30.5939 70.3186 30.5939C70.2618 30.5939 70.2022 30.5953 70.1388 30.5981ZM115.589 31.1854C115.629 32.3324 115.661 33.4836 115.58 34.6273C115.532 35.3225 115.809 35.4318 116.543 35.428C121.666 35.3996 126.789 35.4086 131.912 35.4157C133.466 35.4171 134.053 35.8505 134.087 36.9711C134.125 38.2217 133.539 38.7044 131.916 38.7067C126.758 38.7133 121.602 38.7124 116.444 38.7048C115.936 38.7044 115.575 38.6641 115.582 39.3138C115.623 43.1689 115.61 47.025 115.592 50.88C115.589 51.3244 115.7 51.4924 116.259 51.4772C117.624 51.4413 118.993 51.4247 120.356 51.482C121.081 51.5122 121.173 51.2681 121.166 50.7338C121.135 48.5562 121.172 46.3781 121.139 44.2005C121.131 43.6795 121.248 43.4699 121.914 43.5016C123.003 43.5541 124.101 43.5432 125.192 43.5039C125.76 43.4836 126.124 43.6606 126.493 44.0178C128.901 46.3469 131.332 48.6575 133.762 50.9695C133.981 51.1782 134.134 51.4682 134.551 51.4678C136.887 51.4621 139.223 51.4649 141.746 51.4649C138.915 48.7625 136.225 46.1955 133.425 43.5215C133.907 43.442 134.242 43.3904 134.574 43.3308C137.165 42.8642 138.8 41.5492 139.404 39.3053C139.676 38.2903 139.706 37.2654 139.631 36.2348C139.368 32.6532 137.036 30.6677 132.871 30.6294C129.495 30.5991 126.119 30.6024 122.743 30.6057C120.586 30.6076 118.429 30.6095 116.273 30.6029C116.269 30.6029 116.265 30.6029 116.261 30.6029C115.739 30.6029 115.573 30.7202 115.589 31.1854ZM97.9572 55.6934C97.5909 57.3353 97.1547 58.9655 96.7685 60.6037C96.6081 61.2827 96.9985 61.594 97.8162 61.5903C98.0462 61.5571 98.3201 61.5368 98.5809 61.4739C98.8194 61.4161 98.844 61.2254 98.8369 61.0418C98.8316 60.9093 98.9031 60.6997 98.6367 60.7286C97.5403 60.8483 97.9752 60.1849 98.0537 59.8148C98.3362 58.4871 98.6925 57.1716 99.002 55.8476C99.0451 55.6631 99.3048 55.3441 98.8052 55.3205C98.6864 55.3148 98.5596 55.2949 98.4408 55.2949C98.2236 55.2949 98.0315 55.3602 97.9572 55.6934ZM129.282 55.9948C129.202 56.318 129.421 56.3142 129.637 56.3109C129.692 56.3099 129.747 56.3094 129.797 56.3137C130.44 56.3733 130.364 55.9342 130.432 55.6153C130.499 55.2987 130.294 55.3086 130.098 55.3186C130.033 55.3219 129.969 55.3252 129.917 55.3162C129.846 55.3053 129.784 55.3001 129.729 55.3001C129.233 55.3001 129.35 55.7198 129.282 55.9948ZM80.9024 55.8268C80.4917 57.6992 79.9977 59.5579 79.5259 61.4544C80.3237 61.6598 80.7188 61.5254 80.7879 60.827C80.8423 60.2762 81.0543 59.7377 81.1816 59.1912C81.3047 58.6636 81.6633 58.2883 82.1876 58.0304C82.5099 57.8724 82.8629 57.6931 83.2315 57.9325C83.5693 58.152 83.6138 58.4596 83.5263 58.8027C83.3446 59.5201 83.1605 60.2374 83.019 60.9609C82.9816 61.1526 82.6618 61.5269 83.2594 61.5245C83.319 61.5245 83.3829 61.5306 83.4477 61.5368C83.7066 61.5609 83.9791 61.5855 84.0477 61.2051C84.2299 60.1915 84.6477 59.2106 84.6809 58.1771C84.7135 57.1702 84.1239 56.8366 82.9727 57.0471C82.5439 57.1262 82.1256 57.7077 81.767 57.3079C81.5706 57.0883 81.8677 56.5399 81.9425 56.1396C81.9534 56.0818 81.987 56.0189 81.9714 55.9664C81.9047 55.743 82.3935 55.3612 81.7196 55.3087C81.6539 55.3034 81.5924 55.3001 81.5346 55.3001C81.1939 55.3001 80.9947 55.4085 80.9024 55.8268ZM67.1383 56.185C67.0782 56.5654 67.1444 57.0864 66.3793 57.1494C66.128 57.1702 66.0949 57.6869 66.2624 57.7186C67.0649 57.8691 66.6007 58.3106 66.5548 58.5969C66.454 59.2342 66.252 59.8588 66.1091 60.492C65.9326 61.2713 66.2558 61.6078 67.2655 61.5992C67.4827 61.5524 67.8144 61.4923 68.1381 61.4081C68.4305 61.3324 68.4215 61.1152 68.4149 60.9046C68.4092 60.7357 68.3406 60.607 68.1201 60.6538C67.0114 60.8899 67.2196 60.3259 67.3791 59.7708C67.4775 59.4297 67.5518 59.0828 67.6256 58.7369C67.7335 58.2311 67.7212 57.6595 68.652 57.7763C68.9421 57.8128 68.9813 57.5232 69.0305 57.3282C69.0788 57.1385 68.9406 57.0571 68.7419 57.0789C67.8892 57.173 68.1409 56.7377 68.1987 56.3236C68.2294 56.1027 68.6222 55.7284 68.0174 55.6205C67.9223 55.6034 67.8353 55.5949 67.7562 55.5949C67.4037 55.5949 67.205 55.77 67.1383 56.185ZM87.8044 57.3978C87.6572 57.4659 87.5271 57.5606 87.3804 57.6481C87.1732 57.4617 87.477 57.0382 86.8751 57.0533C86.3318 57.0675 86.2892 57.314 86.2097 57.6472C85.9097 58.9092 85.5913 60.1679 85.2714 61.462C86.0792 61.6589 86.4648 61.5098 86.5315 60.8171C86.584 60.2663 86.7932 59.7268 86.9262 59.1808C87.0539 58.6551 87.4206 58.2808 87.9473 58.0295C88.2696 57.8762 88.6315 57.6983 88.9987 57.9282C89.3489 58.1487 89.347 58.4738 89.2656 58.8079C89.0891 59.5267 88.9017 60.2436 88.756 60.9671C88.7162 61.1653 88.4162 61.524 89.012 61.5311C89.3754 61.5354 89.7374 61.6139 89.8169 61.1095C89.9309 60.3841 90.1959 59.6772 90.3308 58.9536C90.4458 58.3361 90.7931 57.6131 90.0123 57.1636C89.7596 57.0178 89.5055 56.9601 89.2533 56.9601C88.7584 56.9601 88.2691 57.182 87.8044 57.3978ZM161.765 57.6282C161.618 57.4356 161.884 57.0211 161.281 57.0571C160.832 57.0845 160.724 57.2407 160.648 57.5729C160.388 58.7246 160.089 59.8693 159.814 61.0182C159.768 61.2108 159.5 61.5051 160.011 61.525C160.36 61.5392 160.78 61.6499 160.88 61.1578C161.009 60.5227 161.195 59.8962 161.328 59.2617C161.411 58.8694 161.598 58.5292 161.931 58.2661C162.285 57.986 162.704 57.6841 163.204 57.8856C163.754 58.1066 163.603 58.5879 163.52 58.983C163.373 59.6748 163.197 60.3633 162.997 61.0451C162.878 61.4521 163.035 61.5306 163.488 61.5462C164.208 61.5718 164.062 61.0825 164.175 60.7688C164.498 59.8669 164.313 58.7989 165.342 58.1322C165.671 57.9192 166.044 57.6883 166.459 57.9027C166.865 58.1118 166.851 58.4871 166.763 58.8491C166.589 59.5669 166.399 60.2824 166.252 61.0035C166.216 61.18 165.965 61.5183 166.468 61.5217C166.759 61.5226 167.178 61.6996 167.279 61.2306C167.503 60.1934 167.819 59.1666 167.957 58.1218C168.072 57.2449 167.423 56.8777 166.391 57.0367C165.755 57.1342 165.351 57.5293 164.858 57.8118C164.461 57.2492 164.082 56.9729 163.57 56.9729C163.112 56.9729 162.547 57.1938 161.765 57.6282ZM77.6862 56.9752C76.0593 56.9956 74.6327 58.2306 74.5924 59.6331C74.5674 60.3883 74.811 61.0466 75.6387 61.4062C76.586 61.8164 77.4978 61.6295 78.3316 61.1317C78.5885 60.9784 79.0707 60.7712 78.8682 60.5076C78.6221 60.1882 78.1556 60.1442 77.7302 60.4934C77.3776 60.7821 76.9149 60.9377 76.4133 60.7267C75.8895 60.5057 75.7191 60.1059 75.7243 59.6341C75.7319 58.9049 76.0589 58.3205 76.8226 57.9675C77.3038 57.7451 77.8641 57.6613 78.227 58.0607C78.6742 58.5533 79.2515 58.3205 79.4346 58.0901C79.7417 57.7044 79.198 57.4513 78.8545 57.2383C78.5251 57.0344 78.1286 56.9752 77.7363 56.9752C77.7198 56.9752 77.7032 56.9752 77.6862 56.9752ZM151.95 56.9904C150.746 57.1143 149.854 57.6306 149.318 58.5822C148.696 59.6861 148.995 60.8947 150.018 61.3934C151.084 61.913 152.592 61.516 153.361 60.509C152.938 60.235 152.563 60.157 152.105 60.5218C151.716 60.8313 151.213 60.9529 150.697 60.6586C150.022 60.2743 149.943 59.2532 150.532 58.5112C151.107 57.7858 152.052 57.553 152.686 58.1014C153.206 58.55 153.698 58.2694 153.902 58.0555C154.139 57.8071 153.696 57.4896 153.402 57.3032C153.052 57.0812 152.649 56.9762 152.224 56.9762C152.134 56.9762 152.042 56.9809 151.95 56.9904ZM184.126 57.0112C183.651 57.0784 183.209 57.2236 182.808 57.4636C182.694 57.5317 182.413 57.8052 182.428 57.4513C182.444 57.0722 182.242 57.0741 182.009 57.0765C181.96 57.0765 181.908 57.077 181.857 57.0736C181.391 57.0443 181.418 57.3524 181.357 57.5998C181.089 58.691 180.808 59.7808 180.571 60.8772C180.526 61.084 180.072 61.4559 180.753 61.5297C181.188 61.5765 181.542 61.5491 181.618 61.0414C181.709 60.4319 181.91 59.8357 182.043 59.23C182.158 58.6995 182.508 58.3181 183.026 58.0536C183.343 57.8909 183.706 57.7082 184.078 57.9027C184.497 58.1199 184.476 58.4814 184.387 58.8457C184.21 59.564 184.026 60.2819 183.877 61.0044C183.84 61.1833 183.576 61.5169 184.082 61.5202C184.372 61.5226 184.799 61.7095 184.907 61.2448C185.146 60.2081 185.394 59.1727 185.6 58.3021C185.624 57.4125 185.213 56.9861 184.462 56.9861C184.357 56.9861 184.245 56.9942 184.126 57.0112ZM144.556 57.0117C144.081 57.0789 143.64 57.2237 143.239 57.464C143.124 57.5326 142.844 57.8043 142.859 57.4503C142.876 57.0703 142.674 57.0732 142.44 57.076C142.39 57.0765 142.338 57.077 142.287 57.0736C141.82 57.0443 141.849 57.3538 141.788 57.6008C141.52 58.6924 141.24 59.7817 141.002 60.8786C140.957 61.0854 140.504 61.4573 141.186 61.5302C141.622 61.5765 141.974 61.5472 142.05 61.0399C142.14 60.4305 142.341 59.8338 142.475 59.2286C142.6 58.665 142.982 58.2708 143.548 58.0101C143.873 57.8601 144.242 57.6964 144.596 57.9509C144.886 58.1601 144.911 58.453 144.836 58.7601C144.653 59.5077 144.464 60.254 144.308 61.0059C144.271 61.1852 144.008 61.5183 144.515 61.5202C144.805 61.5216 145.23 61.709 145.338 61.2439C145.578 60.2071 145.826 59.1718 146.032 58.3021C146.055 57.4125 145.644 56.9861 144.894 56.9861C144.788 56.9861 144.675 56.9946 144.556 57.0117ZM127.517 57.1479C127.182 57.2729 126.889 57.4806 126.417 57.7427C126.468 57.3703 126.598 57.05 126.024 57.0604C125.574 57.0689 125.461 57.2322 125.386 57.5686C125.127 58.7204 124.826 59.865 124.552 61.0144C124.507 61.2051 124.232 61.5056 124.743 61.5221C125.046 61.5316 125.46 61.6797 125.577 61.2415C125.646 60.9846 125.725 60.7286 125.777 60.4688C126.008 59.3057 126.099 58.0773 127.923 57.8677C128.258 57.8293 128.303 57.4158 128.22 57.2042C128.169 57.0736 128.07 57.0306 127.956 57.0306C127.809 57.0306 127.638 57.1025 127.517 57.1479ZM115.046 57.5653C114.758 58.5964 114.154 59.5144 113.269 60.5928C113.072 59.4079 112.874 58.4625 112.771 57.509C112.716 56.9956 112.357 57.0746 111.993 57.0765C111.427 57.0793 111.658 57.4262 111.698 57.6429C111.874 58.6002 112.08 59.5522 112.271 60.5071C112.559 61.9456 112.553 61.9754 111.023 62.6672C110.74 62.795 110.72 62.9213 110.768 63.1475C110.838 63.474 111.066 63.4816 111.368 63.4229C111.965 63.307 112.443 63.0146 112.781 62.6024C114.022 61.0939 115.196 59.5465 116.002 57.8227C116.097 57.6192 116.55 57.2686 116.014 57.1011C115.898 57.0647 115.782 57.0429 115.671 57.0429C115.395 57.0429 115.154 57.1782 115.046 57.5653ZM134.344 57.6027C133.99 58.6499 133.353 59.5882 132.476 60.6671C132.315 59.4817 132.14 58.5065 132.067 57.5256C132.034 57.0727 131.769 57.0732 131.448 57.0736C131.406 57.0736 131.362 57.0736 131.318 57.0722C130.759 57.0595 130.946 57.3883 130.983 57.6174C131.155 58.692 131.329 59.7671 131.544 60.836C131.593 61.0773 131.383 61.4862 131.926 61.5264C132.399 61.5609 132.832 61.569 133.167 61.1379C133.982 60.0884 134.801 59.044 135.283 57.8416C135.375 57.6126 135.797 57.2766 135.302 57.102C135.193 57.0637 135.09 57.0443 134.994 57.0443C134.696 57.0443 134.469 57.2326 134.344 57.6027ZM189.861 57.6268C189.541 58.6428 188.955 59.5494 188.111 60.5918C187.916 59.4566 187.708 58.5429 187.62 57.6211C187.573 57.1276 187.331 57.05 186.853 57.0699C186.204 57.0973 186.503 57.4792 186.543 57.7063C186.71 58.6636 186.926 59.6147 187.115 60.5701C187.384 61.9267 187.324 62.0564 185.881 62.6568C185.528 62.8035 185.555 62.962 185.621 63.209C185.7 63.502 185.926 63.4688 186.172 63.4267C186.772 63.3231 187.254 63.0326 187.594 62.6209C188.84 61.1152 190.013 59.5669 190.824 57.8454C190.919 57.6448 191.425 57.2686 190.777 57.0869C190.675 57.0585 190.582 57.0448 190.5 57.0448C190.163 57.0448 189.974 57.2695 189.861 57.6268ZM128.881 57.5024C128.641 58.6797 128.318 59.8447 128.037 61.0163C127.991 61.207 127.72 61.5018 128.228 61.5235C128.571 61.5387 128.988 61.6565 129.1 61.1677C129.374 59.9648 129.676 58.7672 129.972 57.5421C129.959 57.3661 130.185 57.0713 129.684 57.0741C129.647 57.0746 129.611 57.0741 129.575 57.0741C129.548 57.0736 129.522 57.0736 129.496 57.0736C129.205 57.0736 128.962 57.1039 128.881 57.5024Z" fill="url(#paint4_linear_436_5194)"/>
  <path d="M115.586 31.1838C115.625 32.3308 115.657 33.4821 115.577 34.6258C115.528 35.3209 115.806 35.4302 116.539 35.4264C121.662 35.3981 126.786 35.407 131.909 35.4141C133.463 35.4156 134.05 35.849 134.083 36.9695C134.121 38.2202 133.535 38.7028 131.912 38.7052C126.755 38.7118 121.598 38.7109 116.441 38.7033C115.932 38.7028 115.571 38.6626 115.578 39.3123C115.619 43.1674 115.607 47.0234 115.588 50.8785C115.586 51.3228 115.696 51.4908 116.255 51.4757C117.62 51.4397 118.989 51.4232 120.353 51.4804C121.077 51.5107 121.169 51.2665 121.162 50.7323C121.131 48.5547 121.168 46.3766 121.135 44.1989C121.128 43.678 121.244 43.4683 121.91 43.5C123 43.5526 124.097 43.5417 125.188 43.5024C125.757 43.482 126.121 43.659 126.49 44.0163C128.898 46.3453 131.329 48.6559 133.758 50.9679C133.978 51.1766 134.131 51.4667 134.548 51.4662C136.884 51.4605 139.22 51.4634 141.743 51.4634C138.911 48.761 136.222 46.1939 133.421 43.5199C133.903 43.4404 134.238 43.3888 134.571 43.3292C137.162 42.8626 138.796 41.5476 139.4 39.3038C139.673 38.2888 139.702 37.2638 139.627 36.2332C139.365 32.6516 137.032 30.6661 132.867 30.6278C129.492 30.5975 126.116 30.6008 122.74 30.6037C120.583 30.606 118.426 30.6079 116.269 30.6013C116.265 30.6013 116.261 30.6013 116.258 30.6013C115.736 30.6013 115.57 30.7187 115.586 31.1838Z" fill="url(#paint5_linear_436_5194)"/>
  <path d="M97.3712 30.7065C93.0656 31.0377 90.6027 32.9551 90.0192 36.248C89.502 39.1667 89.5513 42.1369 89.917 45.0532C90.4167 49.0341 92.6715 50.9184 97.2889 51.3618C100.27 51.6485 103.309 51.64 106.292 51.3665C110.77 50.9562 113.108 48.9764 113.706 45.3489C113.941 43.9208 113.874 42.4705 113.762 41.0282C113.762 39.734 113.843 38.4351 113.747 37.1457C113.48 33.5655 110.998 31.2421 106.88 30.7765C105.267 30.5939 103.643 30.5163 102.02 30.5163C100.466 30.5163 98.9133 30.5877 97.3712 30.7065ZM98.3763 46.5981C96.4248 46.469 95.4278 45.5264 95.3531 43.8309C95.2717 41.9822 95.2736 40.1268 95.3497 38.2775C95.4236 36.487 96.5275 35.525 98.6389 35.4445C100.749 35.3641 102.87 35.3632 104.98 35.4455C107.133 35.5292 108.179 36.5234 108.249 38.3731C108.283 39.2831 108.255 40.1949 108.255 41.1063C108.252 41.1063 108.25 41.1063 108.248 41.1063C108.248 42.0176 108.283 42.9295 108.24 43.839C108.161 45.4795 107.228 46.4358 105.325 46.5863C104.183 46.6767 103.035 46.7179 101.886 46.7179C100.715 46.7179 99.5427 46.6753 98.3763 46.5981Z" fill="url(#paint6_linear_436_5194)"/>
  <path d="M149.084 30.7017C144.445 31.0505 142.132 33.0071 141.58 36.9975C141.208 39.68 141.204 42.4189 141.584 45.1024C142.144 49.0568 144.399 50.9756 149.014 51.3646C152.13 51.6267 155.299 51.6594 158.421 51.3078C162.442 50.8549 164.547 49.0748 165.304 45.6456C165.638 44.1342 165.507 42.5949 165.428 41.0665C165.428 39.743 165.515 38.4143 165.411 37.0964C165.129 33.557 162.64 31.2397 158.593 30.7798C156.968 30.5948 155.333 30.5167 153.699 30.5172C152.156 30.5172 150.614 30.5867 149.084 30.7017ZM150.092 46.6005C148.096 46.502 147.085 45.5207 147.017 43.7845C146.944 41.9646 146.945 40.1395 147.013 38.3191C147.081 36.4903 148.204 35.5145 150.36 35.4398C152.438 35.3674 154.523 35.3655 156.6 35.4403C158.798 35.5198 159.852 36.5158 159.919 38.4199C159.95 39.3006 159.924 40.1831 159.924 41.0646C159.922 41.0646 159.92 41.0646 159.918 41.0646C159.918 41.9755 159.951 42.8878 159.911 43.7978C159.836 45.4852 158.89 46.4803 156.94 46.5872C155.772 46.6521 154.598 46.6833 153.424 46.6833C152.312 46.6833 151.199 46.6549 150.092 46.6005Z" fill="url(#paint7_linear_436_5194)"/>
  <path d="M167.459 50.9743C167.458 51.4598 167.708 51.4773 168.135 51.4725C169.433 51.456 170.734 51.4281 172.03 51.4806C172.798 51.5123 173.057 51.3599 173.046 50.6388C172.996 47.2238 173.02 43.8078 173.032 40.3928C173.032 40.1533 172.885 39.8746 173.193 39.6314C179.253 43.9885 185.305 48.34 191.381 52.709C191.5 52.6129 191.546 52.5926 191.546 52.5722C191.554 45.4181 191.555 38.2634 191.575 31.1087C191.577 30.6299 191.314 30.6034 190.887 30.6076C189.52 30.6214 188.151 30.6488 186.787 30.5982C186.085 30.5717 185.952 30.7874 185.956 31.3434C185.983 34.7878 185.973 38.2326 185.961 41.6775C185.961 41.9145 186.106 42.1947 185.798 42.4227C179.729 38.0576 173.671 33.7004 167.472 29.242C167.472 36.6176 167.478 43.7959 167.459 50.9743Z" fill="url(#paint8_linear_436_5194)"/>
  <path d="M70.1388 30.5975C68.9132 30.6534 67.6786 30.6524 66.4526 30.5971C65.7324 30.5644 65.5512 30.74 65.5592 31.3622C65.5994 34.5695 65.5781 37.7768 65.5781 40.9846C65.5781 44.2505 65.5819 47.517 65.5725 50.7829C65.5715 51.1899 65.5261 51.4814 66.225 51.4795C73.8055 51.4558 81.3865 51.4587 88.967 51.4766C89.5775 51.4781 89.6958 51.2992 89.6792 50.8232C89.6418 49.7055 89.6196 48.5845 89.6858 47.4697C89.7251 46.8143 89.5211 46.6373 88.7404 46.6416C86.2519 46.6567 83.7634 46.6567 81.2748 46.6567C78.2653 46.6562 75.2563 46.6562 72.2478 46.6823C71.2602 46.6913 71.1022 46.4168 71.1088 45.654C71.1471 40.9169 71.1074 36.1793 71.1495 31.4422C71.1556 30.7873 70.9531 30.5933 70.3186 30.5933C70.2623 30.5933 70.2022 30.5947 70.1388 30.5975Z" fill="url(#paint9_linear_436_5194)"/>
  <path d="M161.762 57.6282C161.615 57.4356 161.881 57.0211 161.278 57.0571C160.829 57.0845 160.721 57.2407 160.645 57.5729C160.385 58.7246 160.086 59.8693 159.811 61.0182C159.765 61.2108 159.498 61.5051 160.008 61.525C160.357 61.5392 160.777 61.6499 160.877 61.1578C161.006 60.5228 161.192 59.8963 161.325 59.2617C161.408 58.8694 161.595 58.5292 161.928 58.2661C162.282 57.986 162.701 57.6841 163.201 57.8857C163.752 58.1066 163.6 58.5879 163.517 58.983C163.37 59.6748 163.195 60.3633 162.994 61.0452C162.875 61.4521 163.032 61.5306 163.485 61.5463C164.205 61.5718 164.059 61.0825 164.172 60.7688C164.495 59.8669 164.31 58.7989 165.339 58.1322C165.668 57.9192 166.041 57.6883 166.456 57.9027C166.862 58.1118 166.849 58.4871 166.761 58.8491C166.586 59.5669 166.396 60.2824 166.249 61.0035C166.214 61.18 165.962 61.5184 166.465 61.5217C166.756 61.5226 167.175 61.6996 167.276 61.2306C167.5 60.1934 167.816 59.1666 167.954 58.1218C168.069 57.2449 167.42 56.8778 166.388 57.0367C165.752 57.1342 165.349 57.5293 164.855 57.8118C164.458 57.2487 164.079 56.9729 163.567 56.9729C163.109 56.9729 162.544 57.1938 161.762 57.6282Z" fill="url(#paint10_linear_436_5194)"/>
  <path d="M107.161 57.2175C106.106 57.6666 105.497 58.4308 105.364 59.4254C105.136 61.119 106.317 61.8964 108.175 61.3125C108.355 61.2553 108.535 61.0915 108.713 61.2846C108.869 61.4526 108.711 61.622 108.641 61.772C108.189 62.7364 106.738 63.0335 105.759 62.3001C105.381 62.0171 105.208 62.1084 104.94 62.319C104.545 62.6275 104.951 62.786 105.131 62.9413C105.316 63.1012 105.563 63.2304 105.811 63.3075C107.468 63.8252 109.423 62.9611 109.843 61.489C110.193 60.2649 110.472 59.0251 110.749 57.7868C110.8 57.5615 111.188 57.2133 110.611 57.0846C110.101 56.971 109.849 57.2076 109.81 57.7967C109.302 57.2279 108.764 56.9833 108.194 56.9833C107.861 56.9833 107.517 57.0666 107.161 57.2175ZM107.637 60.818C106.918 60.8119 106.424 60.263 106.468 59.5196C106.522 58.6101 107.415 57.7641 108.302 57.8152C109.039 57.8573 109.413 58.2609 109.408 58.8623C109.4 59.909 108.549 60.818 107.649 60.818C107.645 60.818 107.641 60.818 107.637 60.818ZM108.669 61.0579C108.664 61.0438 108.709 61.0206 108.732 61.0021C108.753 61.039 108.782 61.0769 108.791 61.1181C108.795 61.1337 108.751 61.1564 108.729 61.1753C108.707 61.1365 108.678 61.0991 108.669 61.0579Z" fill="url(#paint11_linear_436_5194)"/>
  <path d="M123.269 55.7922C123.18 56.4003 122.978 56.996 122.8 57.6944C121.633 56.7817 120.538 56.7902 119.492 57.6765C118.808 58.2575 118.446 58.9631 118.465 59.8106C118.5 61.3465 119.97 62.0776 121.501 61.3125C121.765 61.1814 122.066 60.6774 122.277 61.3882C122.347 61.6186 122.748 61.6006 123.014 61.5453C123.41 61.4629 123.455 61.1156 123.363 60.9046C123.124 60.3538 123.395 59.8678 123.507 59.3658C123.759 58.2415 124.064 57.1257 124.319 56.0014C124.372 55.7714 124.723 55.4113 124.13 55.3204C124.029 55.3053 123.931 55.2944 123.839 55.2944C123.551 55.2944 123.327 55.3995 123.269 55.7922ZM119.589 59.6355C119.586 58.7137 120.508 57.7725 121.406 57.8113C122.144 57.8435 122.462 58.2571 122.547 58.7501C122.526 59.882 121.711 60.8033 120.796 60.8218C120.787 60.8218 120.779 60.8218 120.771 60.8218C120.114 60.8218 119.591 60.2984 119.589 59.6355Z" fill="url(#paint12_linear_436_5194)"/>
  <path d="M171.007 57.3337C170.857 57.4075 170.76 57.6583 170.485 57.3517C170.083 56.9031 169.643 56.8468 169.47 57.5608C169.009 59.4555 168.536 61.3468 168.067 63.2419C168.862 63.4932 169.242 63.2983 169.334 62.5932C169.406 62.0523 169.596 61.5228 169.74 60.9626C170.842 61.7164 171.636 61.8129 172.551 61.2881C173.452 60.7714 173.989 60.0474 174.066 59.1001C174.126 58.3629 173.992 57.6687 173.219 57.2267C172.91 57.0502 172.601 56.9764 172.295 56.9764C171.86 56.9764 171.43 57.124 171.007 57.3337ZM171.103 60.8107C170.379 60.7511 170.011 60.3285 170.02 59.7342C170.038 58.6477 170.857 57.7993 171.952 57.8106C172.659 57.8764 172.946 58.3704 172.959 59.0168C172.975 59.8818 172.043 60.8145 171.195 60.8145C171.164 60.8145 171.133 60.8135 171.103 60.8107Z" fill="url(#paint13_linear_436_5194)"/>
  <path d="M80.9035 55.828C80.4928 57.7004 79.9987 59.5591 79.527 61.4556C80.3248 61.661 80.7199 61.5266 80.789 60.8282C80.8434 60.2774 81.0554 59.7389 81.1827 59.1923C81.3057 58.6647 81.6644 58.2895 82.1887 58.0316C82.5109 57.8735 82.8639 57.6942 83.2325 57.9336C83.5704 58.1532 83.6149 58.4608 83.5273 58.8039C83.3456 59.5212 83.1616 60.2386 83.0201 60.9621C82.9827 61.1537 82.6628 61.528 83.2605 61.5256C83.3201 61.5256 83.384 61.5318 83.4488 61.5379C83.7076 61.5621 83.9802 61.5867 84.0488 61.2062C84.231 60.1927 84.6488 59.2117 84.6819 58.1783C84.7146 57.1713 84.125 56.8377 82.9737 57.0483C82.545 57.1273 82.1267 57.7089 81.768 57.309C81.5716 57.0895 81.8688 56.541 81.9436 56.1407C81.9545 56.083 81.9881 56.0201 81.9724 55.9675C81.9057 55.7442 82.3945 55.3623 81.7207 55.3098C81.6549 55.3046 81.5934 55.3013 81.5357 55.3013C81.195 55.3013 80.9958 55.4097 80.9035 55.828Z" fill="url(#paint14_linear_436_5194)"/>
  <path d="M176.521 57.1587C175.187 57.6419 174.338 59.175 174.704 60.3892C174.969 61.2665 175.827 61.7193 176.874 61.5708C177.404 61.4955 177.798 61.2244 178.277 60.9324C178.313 61.4264 178.611 61.6228 179.139 61.5561C179.509 61.5092 179.584 61.2438 179.541 61.0323C179.298 59.8318 179.893 58.7434 180.14 57.6135C180.269 57.0253 179.941 57.083 179.498 57.0669C178.977 57.048 179.155 57.5141 178.863 57.6627C178.468 57.19 177.986 56.9794 177.447 56.9794C177.154 56.9794 176.843 57.0418 176.521 57.1587ZM176.964 60.8108C176.107 60.79 175.835 60.27 175.765 59.7121C175.768 58.7027 176.694 57.7601 177.589 57.8094C178.315 57.8501 178.707 58.2404 178.71 58.8475C178.717 59.8777 177.896 60.8113 176.996 60.8108C176.986 60.8108 176.975 60.8108 176.964 60.8108Z" fill="url(#paint15_linear_436_5194)"/>
  <path d="M87.8007 57.3973C87.6535 57.4655 87.5234 57.5601 87.3767 57.6476C87.1695 57.4612 87.4732 57.0377 86.8713 57.0528C86.3281 57.067 86.2855 57.3136 86.206 57.6467C85.906 58.9087 85.5876 60.1674 85.2677 61.4616C86.0754 61.6584 86.4611 61.5094 86.5278 60.8166C86.5803 60.2658 86.7895 59.7264 86.9224 59.1803C87.0502 58.6546 87.4169 58.2803 87.9436 58.029C88.2658 57.8757 88.6278 57.6978 88.995 57.9278C89.3452 58.1483 89.3433 58.4734 89.2619 58.8074C89.0854 59.5262 88.898 60.2431 88.7523 60.9666C88.7125 61.1649 88.4125 61.5236 89.0083 61.5306C89.3717 61.5349 89.7337 61.6135 89.8132 61.109C89.9272 60.3836 90.1922 59.6767 90.3271 58.9532C90.442 58.3357 90.7894 57.6126 90.0086 57.1631C89.7559 57.0173 89.5018 56.9596 89.2496 56.9596C88.7546 56.9596 88.2654 57.1815 87.8007 57.3973Z" fill="url(#paint16_linear_436_5194)"/>
  <path d="M144.558 57.0115C144.083 57.0787 143.642 57.2235 143.241 57.4639C143.126 57.5325 142.846 57.8041 142.861 57.4502C142.878 57.0702 142.676 57.0731 142.443 57.0759C142.392 57.0764 142.34 57.0768 142.289 57.0735C141.822 57.0442 141.851 57.3537 141.79 57.6007C141.522 58.6923 141.242 59.7816 141.004 60.8785C140.96 61.0852 140.506 61.4572 141.188 61.53C141.624 61.5764 141.976 61.5471 142.052 61.0398C142.143 60.4304 142.343 59.8337 142.477 59.2284C142.602 58.6649 142.984 58.2707 143.55 58.01C143.875 57.86 144.244 57.6962 144.598 57.9508C144.888 58.16 144.913 58.4529 144.838 58.76C144.655 59.5076 144.466 60.2538 144.31 61.0057C144.273 61.1851 144.01 61.5182 144.517 61.5201C144.807 61.5215 145.232 61.7089 145.34 61.2438C145.58 60.207 145.828 59.1717 146.034 58.3019C146.057 57.4123 145.646 56.986 144.896 56.986C144.79 56.986 144.677 56.9945 144.558 57.0115Z" fill="url(#paint17_linear_436_5194)"/>
  <path d="M184.126 57.0114C183.652 57.0786 183.21 57.2239 182.809 57.4638C182.695 57.5319 182.414 57.8054 182.429 57.4515C182.444 57.0725 182.243 57.0744 182.009 57.0767C181.96 57.0767 181.909 57.0772 181.858 57.0739C181.391 57.0445 181.418 57.3526 181.358 57.6001C181.09 58.6912 180.809 59.781 180.572 60.8774C180.527 61.0842 180.073 61.4561 180.754 61.5299C181.188 61.5768 181.543 61.5493 181.619 61.0416C181.71 60.4321 181.911 59.8359 182.043 59.2302C182.159 58.6998 182.509 58.3184 183.026 58.0539C183.343 57.8911 183.706 57.7084 184.079 57.9029C184.497 58.1201 184.477 58.4816 184.387 58.846C184.21 59.5643 184.027 60.2821 183.878 61.0047C183.841 61.1835 183.577 61.5171 184.083 61.5205C184.373 61.5228 184.799 61.7097 184.907 61.2451C185.147 60.2083 185.395 59.173 185.601 58.3023C185.625 57.4127 185.213 56.9863 184.463 56.9863C184.357 56.9863 184.245 56.9944 184.126 57.0114Z" fill="url(#paint18_linear_436_5194)"/>
  <path d="M189.862 57.6268C189.541 58.6428 188.956 59.5494 188.112 60.5918C187.916 59.4566 187.709 58.5429 187.62 57.6211C187.573 57.1276 187.332 57.05 186.854 57.0699C186.204 57.0973 186.504 57.4792 186.543 57.7063C186.711 58.6636 186.927 59.6147 187.115 60.5701C187.384 61.9267 187.324 62.0564 185.882 62.6568C185.529 62.8035 185.556 62.962 185.622 63.209C185.701 63.502 185.927 63.4688 186.172 63.4267C186.772 63.3231 187.254 63.0326 187.595 62.6209C188.841 61.1152 190.014 59.5669 190.824 57.8454C190.919 57.6448 191.425 57.2686 190.777 57.0869C190.675 57.0585 190.583 57.0448 190.5 57.0448C190.163 57.0448 189.975 57.2695 189.862 57.6268Z" fill="url(#paint19_linear_436_5194)"/>
  <path d="M115.045 57.5658C114.758 58.5969 114.153 59.5149 113.269 60.5933C113.072 59.4085 112.874 58.463 112.771 57.5095C112.716 56.9961 112.357 57.0752 111.993 57.077C111.426 57.0799 111.658 57.4267 111.697 57.6435C111.873 58.6007 112.08 59.5528 112.271 60.5077C112.559 61.9462 112.553 61.976 111.023 62.6678C110.74 62.7956 110.72 62.9219 110.768 63.1481C110.838 63.4746 111.066 63.4822 111.368 63.4235C111.965 63.3076 112.442 63.0151 112.781 62.603C114.021 61.0944 115.195 59.5471 116.002 57.8233C116.097 57.6198 116.55 57.2692 116.014 57.1017C115.898 57.0652 115.782 57.0434 115.67 57.0434C115.394 57.0434 115.154 57.1788 115.045 57.5658Z" fill="url(#paint20_linear_436_5194)"/>
  <path d="M69.7103 58.0747C68.7918 59.0978 68.8287 60.5429 69.7529 61.2139C70.7215 61.918 72.3725 61.6786 73.4097 60.6811C73.4518 60.6404 73.4698 60.5812 73.4987 60.5296C73.1002 60.2178 72.7628 60.2363 72.3554 60.5732C71.9423 60.9158 71.3949 61.0118 70.8308 60.8301C70.2923 60.6565 70.1366 60.2197 70.1769 59.8241C70.2095 59.5 70.4646 59.5516 70.7101 59.6022C70.8147 59.6244 70.9183 59.6462 71.0021 59.6386C71.6116 59.5842 72.2277 59.6088 72.8225 59.437C73.5871 59.2161 74.0547 58.811 73.978 58.0757C73.9028 57.3503 73.3018 57.0829 72.5764 57.0124C72.4378 56.9987 72.302 56.9921 72.1695 56.9921C71.1758 56.9921 70.3439 57.3687 69.7103 58.0747ZM70.3183 58.9719C70.6614 58.122 71.2411 57.6711 72.2045 57.6806C72.5414 57.6839 72.8849 57.7804 72.9644 58.1367C73.0501 58.5209 72.8021 58.7547 72.4169 58.8579C71.9996 58.9695 71.5747 59.0339 71.1147 59.0339C70.8611 59.0339 70.597 59.0145 70.3183 58.9719Z" fill="url(#paint21_linear_436_5194)"/>
  <path d="M136.486 57.7378C135.306 58.6487 135.127 60.3451 136.095 61.1481C137.085 61.9691 138.86 61.6875 139.931 60.5405C139.488 60.1478 139.149 60.3314 138.713 60.6162C137.888 61.1542 136.988 60.9626 136.693 60.2637C136.511 59.8326 136.47 59.5473 137.213 59.6107C137.993 59.6765 138.792 59.6367 139.525 59.3504C140.139 59.1115 140.475 58.697 140.412 58.087C140.351 57.5036 139.935 57.1988 139.319 57.0649C139.063 57.0096 138.816 56.9831 138.576 56.9831C137.796 56.9831 137.101 57.2641 136.486 57.7378ZM136.838 58.7556C136.88 58.2635 137.807 57.6626 138.504 57.6753C138.968 57.6839 139.506 57.7955 139.388 58.2791C139.166 59.1858 138.18 58.8867 137.514 59.0561C137.428 59.0041 137.309 59.0183 137.195 59.0324C137.142 59.0391 137.089 59.0462 137.042 59.0462C136.912 59.0462 136.817 58.9955 136.838 58.7556Z" fill="url(#paint22_linear_436_5194)"/>
  <path d="M90.9947 59.6843C90.9706 60.8379 91.7329 61.5865 92.9603 61.6139C94.6023 61.6513 96.1127 60.4021 96.1638 58.965C96.2045 57.8076 95.3698 56.989 94.1277 56.9681C94.1107 56.9681 94.0936 56.9677 94.0771 56.9677C92.489 56.9681 91.0255 58.2514 90.9947 59.6843ZM93.2267 60.8138C92.3343 60.7816 92.1498 60.2227 92.111 59.697C92.1275 58.6816 92.9665 57.8246 93.8655 57.8175C94.7774 57.8099 95.0135 58.3631 95.0471 58.9887C95.0949 59.874 94.1622 60.8147 93.2722 60.8147C93.257 60.8147 93.2419 60.8142 93.2267 60.8138Z" fill="url(#paint23_linear_436_5194)"/>
  <path d="M99.6075 59.6524C99.571 60.8103 100.319 61.5688 101.538 61.6114C103.178 61.6686 104.704 60.4331 104.773 58.9927C104.828 57.8296 104.019 57.0091 102.775 56.9675C102.743 56.9665 102.711 56.9661 102.679 56.9661C101.123 56.9661 99.6524 58.2399 99.6075 59.6524ZM101.847 60.8117C100.953 60.7852 100.764 60.2278 100.724 59.7035C100.736 58.6875 101.571 57.8282 102.47 57.8154C103.383 57.8026 103.622 58.3539 103.66 58.9795C103.712 59.8662 102.779 60.8121 101.884 60.8121C101.872 60.8121 101.859 60.8121 101.847 60.8117Z" fill="url(#paint24_linear_436_5194)"/>
  <path d="M154.141 59.6617C154.108 60.8177 154.86 61.5734 156.081 61.6117C157.72 61.6633 159.244 60.4226 159.308 58.9846C159.359 57.8229 158.541 57.0019 157.298 56.9659C157.271 56.9655 157.243 56.965 157.216 56.965C155.651 56.965 154.181 58.2431 154.141 59.6617ZM156.333 60.8135C155.513 60.7605 155.28 60.2523 155.262 59.6399C155.233 58.7026 156.121 57.8054 157.23 57.8125C157.936 57.8598 158.179 58.3893 158.192 59.0205C158.21 59.9035 157.284 60.8158 156.412 60.8158C156.386 60.8158 156.36 60.8149 156.333 60.8135Z" fill="url(#paint25_linear_436_5194)"/>
  <path d="M77.6868 56.9757C76.0599 56.996 74.6333 58.231 74.593 59.6336C74.568 60.3888 74.8116 61.047 75.6393 61.4066C76.5866 61.8169 77.4984 61.63 78.3322 61.1322C78.5891 60.9789 79.0713 60.7716 78.8688 60.508C78.6227 60.1886 78.1562 60.1446 77.7308 60.4938C77.3782 60.7825 76.9155 60.9382 76.4139 60.7271C75.8901 60.5061 75.7197 60.1063 75.7249 59.6345C75.7325 58.9053 76.0595 58.3209 76.8232 57.9679C77.3044 57.7455 77.8647 57.6618 78.2276 58.0612C78.6748 58.5538 79.2521 58.321 79.4352 58.0905C79.7423 57.7049 79.1986 57.4517 78.8551 57.2388C78.5257 57.0348 78.1292 56.9757 77.7369 56.9757C77.7204 56.9757 77.7038 56.9757 77.6868 56.9757Z" fill="url(#paint26_linear_436_5194)"/>
  <path d="M151.95 56.9916C150.746 57.1156 149.854 57.6318 149.317 58.5834C148.696 59.6874 148.994 60.8959 150.017 61.3946C151.083 61.9142 152.591 61.5172 153.36 60.5102C152.937 60.2363 152.563 60.1582 152.105 60.523C151.716 60.8325 151.212 60.9541 150.696 60.6598C150.022 60.2755 149.943 59.2544 150.531 58.5124C151.107 57.787 152.052 57.5542 152.686 58.1026C153.205 58.5512 153.698 58.2706 153.902 58.0567C154.139 57.8083 153.695 57.4908 153.402 57.3044C153.052 57.0824 152.648 56.9774 152.224 56.9774C152.133 56.9774 152.042 56.9821 151.95 56.9916Z" fill="url(#paint27_linear_436_5194)"/>
  <path d="M134.345 57.6017C133.991 58.6489 133.354 59.5872 132.476 60.6661C132.315 59.4808 132.14 58.5055 132.068 57.5246C132.034 57.0718 131.769 57.0722 131.448 57.0722C131.406 57.0722 131.362 57.0727 131.318 57.0713C130.76 57.0585 130.946 57.3874 130.983 57.6164C131.155 58.691 131.329 59.7661 131.545 60.835C131.593 61.0764 131.383 61.4852 131.927 61.5254C132.399 61.56 132.833 61.568 133.167 61.1369C133.983 60.0874 134.802 59.0431 135.283 57.8407C135.375 57.6117 135.797 57.2757 135.303 57.1011C135.193 57.0628 135.09 57.0434 134.995 57.0434C134.696 57.0434 134.469 57.2317 134.345 57.6017Z" fill="url(#paint28_linear_436_5194)"/>
  <path d="M67.1359 56.1842C67.0758 56.5647 67.142 57.0857 66.3769 57.1486C66.1256 57.1694 66.0925 57.6861 66.26 57.7178C67.0625 57.8683 66.5983 58.3098 66.5524 58.5961C66.4516 59.2335 66.2496 59.8581 66.1067 60.4912C65.9302 61.2706 66.2534 61.607 67.2632 61.5985C67.4804 61.5516 67.8121 61.4915 68.1357 61.4073C68.4282 61.3316 68.4192 61.1144 68.4126 60.9038C68.4069 60.7349 68.3383 60.6062 68.1178 60.653C67.0091 60.8892 67.2173 60.3251 67.3767 59.7701C67.4752 59.4289 67.5494 59.0821 67.6233 58.7362C67.7312 58.2303 67.7188 57.6587 68.6496 57.7756C68.9397 57.812 68.979 57.5224 69.0282 57.3275C69.0764 57.1377 68.9383 57.0563 68.7395 57.0781C67.8868 57.1723 68.1386 56.7369 68.1963 56.3229C68.2271 56.1019 68.6198 55.7276 68.0151 55.6197C67.92 55.6027 67.8329 55.5942 67.7539 55.5942C67.4013 55.5942 67.2026 55.7692 67.1359 56.1842Z" fill="url(#paint29_linear_436_5194)"/>
  <path d="M97.9567 55.6929C97.5905 57.3349 97.1542 58.965 96.7681 60.6032C96.6077 61.2822 96.9981 61.5936 97.8157 61.5898C98.0457 61.5567 98.3197 61.5363 98.5804 61.4734C98.8189 61.4157 98.8435 61.225 98.8364 61.0414C98.8312 60.9089 98.9027 60.6993 98.6362 60.7281C97.5399 60.8478 97.9747 60.1844 98.0533 59.8144C98.3358 58.4866 98.6921 57.1711 99.0016 55.8472C99.0446 55.6626 99.3044 55.3437 98.8047 55.32C98.6859 55.3143 98.5591 55.2945 98.4404 55.2945C98.2232 55.2945 98.031 55.3598 97.9567 55.6929Z" fill="url(#paint30_linear_436_5194)"/>
  <path d="M127.518 57.1489C127.184 57.2738 126.891 57.4816 126.419 57.7437C126.47 57.3713 126.6 57.051 126.026 57.0614C125.576 57.0699 125.463 57.2331 125.388 57.5696C125.129 58.7213 124.828 59.866 124.554 61.0153C124.508 61.206 124.234 61.5065 124.745 61.5231C125.048 61.5325 125.462 61.6807 125.579 61.2425C125.648 60.9855 125.727 60.7295 125.779 60.4698C126.01 59.3067 126.101 58.0783 127.925 57.8686C128.26 57.8303 128.305 57.4167 128.222 57.2052C128.171 57.0746 128.072 57.0315 127.958 57.0315C127.811 57.0315 127.64 57.1035 127.518 57.1489Z" fill="url(#paint31_linear_436_5194)"/>
  <path d="M128.88 57.5034C128.64 58.6807 128.316 59.8457 128.036 61.0174C127.99 61.2081 127.718 61.5029 128.227 61.5246C128.57 61.5398 128.987 61.6576 129.099 61.1688C129.373 59.9659 129.675 58.7683 129.971 57.5432C129.958 57.3672 130.184 57.0724 129.683 57.0752C129.646 57.0757 129.61 57.0752 129.574 57.0752C129.547 57.0747 129.521 57.0747 129.495 57.0747C129.203 57.0747 128.961 57.105 128.88 57.5034Z" fill="url(#paint32_linear_436_5194)"/>
  <path d="M129.283 55.9959C129.203 56.3191 129.422 56.3158 129.638 56.312C129.693 56.311 129.748 56.3106 129.798 56.3148C130.442 56.3744 130.365 55.9353 130.433 55.6164C130.5 55.2998 130.295 55.3098 130.099 55.3197C130.034 55.323 129.97 55.3263 129.918 55.3173C129.847 55.3065 129.785 55.3013 129.73 55.3013C129.234 55.3013 129.351 55.721 129.283 55.9959Z" fill="url(#paint33_linear_436_5194)"/>
  <path d="M108.666 61.0577C108.676 61.0991 108.705 61.1367 108.727 61.1758C108.749 61.1567 108.793 61.1339 108.79 61.1182C108.781 61.0768 108.752 61.0387 108.73 61.0006C108.707 61.0201 108.662 61.0434 108.666 61.0577Z" fill="url(#paint34_linear_436_5194)"/>
  <defs>
    <linearGradient id="paint0_linear_436_5194" x1="75.8693" y1="72.7266" x2="-20.7999" y2="-8.49115" gradientUnits="userSpaceOnUse">
      <stop stop-color="#06718A"/>
      <stop offset="0.0834" stop-color="#08768E"/>
      <stop offset="0.1776" stop-color="#0F8398"/>
      <stop offset="0.277" stop-color="#1199AA"/>
      <stop offset="0.3794" stop-color="#13B7C3"/>
      <stop offset="0.3816" stop-color="#16B8C4"/>
      <stop offset="0.3851" stop-color="#17AEBC"/>
      <stop offset="0.3953" stop-color="#0B93A7"/>
      <stop offset="0.4071" stop-color="#0E7D96"/>
      <stop offset="0.4208" stop-color="#0A6D89"/>
      <stop offset="0.4378" stop-color="#0B6280"/>
      <stop offset="0.4617" stop-color="#055B7A"/>
      <stop offset="0.5279" stop-color="#065978"/>
      <stop offset="0.5382" stop-color="#297475"/>
      <stop offset="0.5511" stop-color="#508F73"/>
      <stop offset="0.565" stop-color="#71A771"/>
      <stop offset="0.5797" stop-color="#8CBB6F"/>
      <stop offset="0.5956" stop-color="#A1CA6D"/>
      <stop offset="0.6133" stop-color="#B0D46C"/>
      <stop offset="0.6343" stop-color="#B9D76D"/>
      <stop offset="0.6665" stop-color="#BCD86E"/>
      <stop offset="0.691" stop-color="#B5D559"/>
      <stop offset="0.721" stop-color="#B2D34C"/>
      <stop offset="0.7595" stop-color="#B1D244"/>
      <stop offset="0.8346" stop-color="#AFD243"/>
      <stop offset="0.8525" stop-color="#BCD747"/>
      <stop offset="0.8812" stop-color="#C8DB4B"/>
      <stop offset="0.919" stop-color="#D1DE4C"/>
      <stop offset="1" stop-color="#D2DF4E"/>
    </linearGradient>
    <linearGradient id="paint1_linear_436_5194" x1="157.47" y1="-22.5265" x2="70.4242" y2="-95.6601" gradientUnits="userSpaceOnUse">
      <stop stop-color="#06718A"/>
      <stop offset="0.0834" stop-color="#08768E"/>
      <stop offset="0.1776" stop-color="#0F8398"/>
      <stop offset="0.277" stop-color="#1199AA"/>
      <stop offset="0.3794" stop-color="#13B7C3"/>
      <stop offset="0.3816" stop-color="#16B8C4"/>
      <stop offset="0.3851" stop-color="#17AEBC"/>
      <stop offset="0.3953" stop-color="#0B93A7"/>
      <stop offset="0.4071" stop-color="#0E7D96"/>
      <stop offset="0.4208" stop-color="#0A6D89"/>
      <stop offset="0.4378" stop-color="#0B6280"/>
      <stop offset="0.4617" stop-color="#055B7A"/>
      <stop offset="0.5279" stop-color="#065978"/>
      <stop offset="0.5382" stop-color="#297475"/>
      <stop offset="0.5511" stop-color="#508F73"/>
      <stop offset="0.565" stop-color="#71A771"/>
      <stop offset="0.5797" stop-color="#8CBB6F"/>
      <stop offset="0.5956" stop-color="#A1CA6D"/>
      <stop offset="0.6133" stop-color="#B0D46C"/>
      <stop offset="0.6343" stop-color="#B9D76D"/>
      <stop offset="0.6665" stop-color="#BCD86E"/>
      <stop offset="0.691" stop-color="#B5D559"/>
      <stop offset="0.721" stop-color="#B2D34C"/>
      <stop offset="0.7595" stop-color="#B1D244"/>
      <stop offset="0.8346" stop-color="#AFD243"/>
      <stop offset="0.8525" stop-color="#BCD747"/>
      <stop offset="0.8812" stop-color="#C8DB4B"/>
      <stop offset="0.919" stop-color="#D1DE4C"/>
      <stop offset="1" stop-color="#D2DF4E"/>
    </linearGradient>
    <linearGradient id="paint2_linear_436_5194" x1="70.9431" y1="63.3203" x2="-13.0052" y2="-7.2077" gradientUnits="userSpaceOnUse">
      <stop stop-color="#06718A"/>
      <stop offset="0.0834" stop-color="#08768E"/>
      <stop offset="0.1776" stop-color="#0F8398"/>
      <stop offset="0.277" stop-color="#1199AA"/>
      <stop offset="0.3794" stop-color="#13B7C3"/>
      <stop offset="0.3816" stop-color="#16B8C4"/>
      <stop offset="0.3851" stop-color="#17AEBC"/>
      <stop offset="0.3953" stop-color="#0B93A7"/>
      <stop offset="0.4071" stop-color="#0E7D96"/>
      <stop offset="0.4208" stop-color="#0A6D89"/>
      <stop offset="0.4378" stop-color="#0B6280"/>
      <stop offset="0.4617" stop-color="#055B7A"/>
      <stop offset="0.5279" stop-color="#065978"/>
      <stop offset="0.5382" stop-color="#297475"/>
      <stop offset="0.5511" stop-color="#508F73"/>
      <stop offset="0.565" stop-color="#71A771"/>
      <stop offset="0.5797" stop-color="#8CBB6F"/>
      <stop offset="0.5956" stop-color="#A1CA6D"/>
      <stop offset="0.6133" stop-color="#B0D46C"/>
      <stop offset="0.6343" stop-color="#B9D76D"/>
      <stop offset="0.6665" stop-color="#BCD86E"/>
      <stop offset="0.691" stop-color="#B5D559"/>
      <stop offset="0.721" stop-color="#B2D34C"/>
      <stop offset="0.7595" stop-color="#B1D244"/>
      <stop offset="0.8346" stop-color="#AFD243"/>
      <stop offset="0.8525" stop-color="#BCD747"/>
      <stop offset="0.8812" stop-color="#C8DB4B"/>
      <stop offset="0.919" stop-color="#D1DE4C"/>
      <stop offset="1" stop-color="#D2DF4E"/>
    </linearGradient>
    <linearGradient id="paint3_linear_436_5194" x1="62.8415" y1="68.4946" x2="-20.6232" y2="-1.62718" gradientUnits="userSpaceOnUse">
      <stop stop-color="#06718A"/>
      <stop offset="0.0834" stop-color="#08768E"/>
      <stop offset="0.1776" stop-color="#0F8398"/>
      <stop offset="0.277" stop-color="#1199AA"/>
      <stop offset="0.3794" stop-color="#13B7C3"/>
      <stop offset="0.3816" stop-color="#16B8C4"/>
      <stop offset="0.3851" stop-color="#17AEBC"/>
      <stop offset="0.3953" stop-color="#0B93A7"/>
      <stop offset="0.4071" stop-color="#0E7D96"/>
      <stop offset="0.4208" stop-color="#0A6D89"/>
      <stop offset="0.4378" stop-color="#0B6280"/>
      <stop offset="0.4617" stop-color="#055B7A"/>
      <stop offset="0.5279" stop-color="#065978"/>
      <stop offset="0.5382" stop-color="#297475"/>
      <stop offset="0.5511" stop-color="#508F73"/>
      <stop offset="0.565" stop-color="#71A771"/>
      <stop offset="0.5797" stop-color="#8CBB6F"/>
      <stop offset="0.5956" stop-color="#A1CA6D"/>
      <stop offset="0.6133" stop-color="#B0D46C"/>
      <stop offset="0.6343" stop-color="#B9D76D"/>
      <stop offset="0.6665" stop-color="#BCD86E"/>
      <stop offset="0.691" stop-color="#B5D559"/>
      <stop offset="0.721" stop-color="#B2D34C"/>
      <stop offset="0.7595" stop-color="#B1D244"/>
      <stop offset="0.8346" stop-color="#AFD243"/>
      <stop offset="0.8525" stop-color="#BCD747"/>
      <stop offset="0.8812" stop-color="#C8DB4B"/>
      <stop offset="0.919" stop-color="#D1DE4C"/>
      <stop offset="1" stop-color="#D2DF4E"/>
    </linearGradient>
    <linearGradient id="paint4_linear_436_5194" x1="60.9253" y1="39.895" x2="353.094" y2="66.5127" gradientUnits="userSpaceOnUse">
      <stop stop-color="#06718A"/>
      <stop offset="0.0834" stop-color="#08768E"/>
      <stop offset="0.1776" stop-color="#0F8398"/>
      <stop offset="0.277" stop-color="#1199AA"/>
      <stop offset="0.3794" stop-color="#13B7C3"/>
      <stop offset="0.3816" stop-color="#16B8C4"/>
      <stop offset="0.3851" stop-color="#17AEBC"/>
      <stop offset="0.3953" stop-color="#0B93A7"/>
      <stop offset="0.4071" stop-color="#0E7D96"/>
      <stop offset="0.4208" stop-color="#0A6D89"/>
      <stop offset="0.4378" stop-color="#0B6280"/>
      <stop offset="0.4617" stop-color="#055B7A"/>
      <stop offset="0.5279" stop-color="#065978"/>
      <stop offset="0.5382" stop-color="#297475"/>
      <stop offset="0.5511" stop-color="#508F73"/>
      <stop offset="0.565" stop-color="#71A771"/>
      <stop offset="0.5797" stop-color="#8CBB6F"/>
      <stop offset="0.5956" stop-color="#A1CA6D"/>
      <stop offset="0.6133" stop-color="#B0D46C"/>
      <stop offset="0.6343" stop-color="#B9D76D"/>
      <stop offset="0.6665" stop-color="#BCD86E"/>
      <stop offset="0.691" stop-color="#B5D559"/>
      <stop offset="0.721" stop-color="#B2D34C"/>
      <stop offset="0.7595" stop-color="#B1D244"/>
      <stop offset="0.8346" stop-color="#AFD243"/>
      <stop offset="0.8525" stop-color="#BCD747"/>
      <stop offset="0.8812" stop-color="#C8DB4B"/>
      <stop offset="0.919" stop-color="#D1DE4C"/>
      <stop offset="1" stop-color="#D2DF4E"/>
    </linearGradient>
    <linearGradient id="paint5_linear_436_5194" x1="61.8969" y1="35.3294" x2="351.831" y2="61.7435" gradientUnits="userSpaceOnUse">
      <stop stop-color="#06718A"/>
      <stop offset="0.0834" stop-color="#08768E"/>
      <stop offset="0.1776" stop-color="#0F8398"/>
      <stop offset="0.277" stop-color="#1199AA"/>
      <stop offset="0.3794" stop-color="#13B7C3"/>
      <stop offset="0.3816" stop-color="#16B8C4"/>
      <stop offset="0.3851" stop-color="#17AEBC"/>
      <stop offset="0.3953" stop-color="#0B93A7"/>
      <stop offset="0.4071" stop-color="#0E7D96"/>
      <stop offset="0.4208" stop-color="#0A6D89"/>
      <stop offset="0.4378" stop-color="#0B6280"/>
      <stop offset="0.4617" stop-color="#055B7A"/>
      <stop offset="0.5279" stop-color="#065978"/>
      <stop offset="0.5382" stop-color="#297475"/>
      <stop offset="0.5511" stop-color="#508F73"/>
      <stop offset="0.565" stop-color="#71A771"/>
      <stop offset="0.5797" stop-color="#8CBB6F"/>
      <stop offset="0.5956" stop-color="#A1CA6D"/>
      <stop offset="0.6133" stop-color="#B0D46C"/>
      <stop offset="0.6343" stop-color="#B9D76D"/>
      <stop offset="0.6665" stop-color="#BCD86E"/>
      <stop offset="0.691" stop-color="#B5D559"/>
      <stop offset="0.721" stop-color="#B2D34C"/>
      <stop offset="0.7595" stop-color="#B1D244"/>
      <stop offset="0.8346" stop-color="#AFD243"/>
      <stop offset="0.8525" stop-color="#BCD747"/>
      <stop offset="0.8812" stop-color="#C8DB4B"/>
      <stop offset="0.919" stop-color="#D1DE4C"/>
      <stop offset="1" stop-color="#D2DF4E"/>
    </linearGradient>
    <linearGradient id="paint6_linear_436_5194" x1="61.156" y1="37.3361" x2="353.054" y2="63.9292" gradientUnits="userSpaceOnUse">
      <stop stop-color="#06718A"/>
      <stop offset="0.0834" stop-color="#08768E"/>
      <stop offset="0.1776" stop-color="#0F8398"/>
      <stop offset="0.277" stop-color="#1199AA"/>
      <stop offset="0.3794" stop-color="#13B7C3"/>
      <stop offset="0.3816" stop-color="#16B8C4"/>
      <stop offset="0.3851" stop-color="#17AEBC"/>
      <stop offset="0.3953" stop-color="#0B93A7"/>
      <stop offset="0.4071" stop-color="#0E7D96"/>
      <stop offset="0.4208" stop-color="#0A6D89"/>
      <stop offset="0.4378" stop-color="#0B6280"/>
      <stop offset="0.4617" stop-color="#055B7A"/>
      <stop offset="0.5279" stop-color="#065978"/>
      <stop offset="0.5382" stop-color="#297475"/>
      <stop offset="0.5511" stop-color="#508F73"/>
      <stop offset="0.565" stop-color="#71A771"/>
      <stop offset="0.5797" stop-color="#8CBB6F"/>
      <stop offset="0.5956" stop-color="#A1CA6D"/>
      <stop offset="0.6133" stop-color="#B0D46C"/>
      <stop offset="0.6343" stop-color="#B9D76D"/>
      <stop offset="0.6665" stop-color="#BCD86E"/>
      <stop offset="0.691" stop-color="#B5D559"/>
      <stop offset="0.721" stop-color="#B2D34C"/>
      <stop offset="0.7595" stop-color="#B1D244"/>
      <stop offset="0.8346" stop-color="#AFD243"/>
      <stop offset="0.8525" stop-color="#BCD747"/>
      <stop offset="0.8812" stop-color="#C8DB4B"/>
      <stop offset="0.919" stop-color="#D1DE4C"/>
      <stop offset="1" stop-color="#D2DF4E"/>
    </linearGradient>
    <linearGradient id="paint7_linear_436_5194" x1="61.7789" y1="32.6836" x2="353.687" y2="59.2777" gradientUnits="userSpaceOnUse">
      <stop stop-color="#06718A"/>
      <stop offset="0.0834" stop-color="#08768E"/>
      <stop offset="0.1776" stop-color="#0F8398"/>
      <stop offset="0.277" stop-color="#1199AA"/>
      <stop offset="0.3794" stop-color="#13B7C3"/>
      <stop offset="0.3816" stop-color="#16B8C4"/>
      <stop offset="0.3851" stop-color="#17AEBC"/>
      <stop offset="0.3953" stop-color="#0B93A7"/>
      <stop offset="0.4071" stop-color="#0E7D96"/>
      <stop offset="0.4208" stop-color="#0A6D89"/>
      <stop offset="0.4378" stop-color="#0B6280"/>
      <stop offset="0.4617" stop-color="#055B7A"/>
      <stop offset="0.5279" stop-color="#065978"/>
      <stop offset="0.5382" stop-color="#297475"/>
      <stop offset="0.5511" stop-color="#508F73"/>
      <stop offset="0.565" stop-color="#71A771"/>
      <stop offset="0.5797" stop-color="#8CBB6F"/>
      <stop offset="0.5956" stop-color="#A1CA6D"/>
      <stop offset="0.6133" stop-color="#B0D46C"/>
      <stop offset="0.6343" stop-color="#B9D76D"/>
      <stop offset="0.6665" stop-color="#BCD86E"/>
      <stop offset="0.691" stop-color="#B5D559"/>
      <stop offset="0.721" stop-color="#B2D34C"/>
      <stop offset="0.7595" stop-color="#B1D244"/>
      <stop offset="0.8346" stop-color="#AFD243"/>
      <stop offset="0.8525" stop-color="#BCD747"/>
      <stop offset="0.8812" stop-color="#C8DB4B"/>
      <stop offset="0.919" stop-color="#D1DE4C"/>
      <stop offset="1" stop-color="#D2DF4E"/>
    </linearGradient>
    <linearGradient id="paint8_linear_436_5194" x1="63.1605" y1="30.4406" x2="352.422" y2="56.7935" gradientUnits="userSpaceOnUse">
      <stop stop-color="#06718A"/>
      <stop offset="0.0834" stop-color="#08768E"/>
      <stop offset="0.1776" stop-color="#0F8398"/>
      <stop offset="0.277" stop-color="#1199AA"/>
      <stop offset="0.3794" stop-color="#13B7C3"/>
      <stop offset="0.3816" stop-color="#16B8C4"/>
      <stop offset="0.3851" stop-color="#17AEBC"/>
      <stop offset="0.3953" stop-color="#0B93A7"/>
      <stop offset="0.4071" stop-color="#0E7D96"/>
      <stop offset="0.4208" stop-color="#0A6D89"/>
      <stop offset="0.4378" stop-color="#0B6280"/>
      <stop offset="0.4617" stop-color="#055B7A"/>
      <stop offset="0.5279" stop-color="#065978"/>
      <stop offset="0.5382" stop-color="#297475"/>
      <stop offset="0.5511" stop-color="#508F73"/>
      <stop offset="0.565" stop-color="#71A771"/>
      <stop offset="0.5797" stop-color="#8CBB6F"/>
      <stop offset="0.5956" stop-color="#A1CA6D"/>
      <stop offset="0.6133" stop-color="#B0D46C"/>
      <stop offset="0.6343" stop-color="#B9D76D"/>
      <stop offset="0.6665" stop-color="#BCD86E"/>
      <stop offset="0.691" stop-color="#B5D559"/>
      <stop offset="0.721" stop-color="#B2D34C"/>
      <stop offset="0.7595" stop-color="#B1D244"/>
      <stop offset="0.8346" stop-color="#AFD243"/>
      <stop offset="0.8525" stop-color="#BCD747"/>
      <stop offset="0.8812" stop-color="#C8DB4B"/>
      <stop offset="0.919" stop-color="#D1DE4C"/>
      <stop offset="1" stop-color="#D2DF4E"/>
    </linearGradient>
    <linearGradient id="paint9_linear_436_5194" x1="60.9139" y1="40.3653" x2="350.689" y2="66.765" gradientUnits="userSpaceOnUse">
      <stop stop-color="#06718A"/>
      <stop offset="0.0834" stop-color="#08768E"/>
      <stop offset="0.1776" stop-color="#0F8398"/>
      <stop offset="0.277" stop-color="#1199AA"/>
      <stop offset="0.3794" stop-color="#13B7C3"/>
      <stop offset="0.3816" stop-color="#16B8C4"/>
      <stop offset="0.3851" stop-color="#17AEBC"/>
      <stop offset="0.3953" stop-color="#0B93A7"/>
      <stop offset="0.4071" stop-color="#0E7D96"/>
      <stop offset="0.4208" stop-color="#0A6D89"/>
      <stop offset="0.4378" stop-color="#0B6280"/>
      <stop offset="0.4617" stop-color="#055B7A"/>
      <stop offset="0.5279" stop-color="#065978"/>
      <stop offset="0.5382" stop-color="#297475"/>
      <stop offset="0.5511" stop-color="#508F73"/>
      <stop offset="0.565" stop-color="#71A771"/>
      <stop offset="0.5797" stop-color="#8CBB6F"/>
      <stop offset="0.5956" stop-color="#A1CA6D"/>
      <stop offset="0.6133" stop-color="#B0D46C"/>
      <stop offset="0.6343" stop-color="#B9D76D"/>
      <stop offset="0.6665" stop-color="#BCD86E"/>
      <stop offset="0.691" stop-color="#B5D559"/>
      <stop offset="0.721" stop-color="#B2D34C"/>
      <stop offset="0.7595" stop-color="#B1D244"/>
      <stop offset="0.8346" stop-color="#AFD243"/>
      <stop offset="0.8525" stop-color="#BCD747"/>
      <stop offset="0.8812" stop-color="#C8DB4B"/>
      <stop offset="0.919" stop-color="#D1DE4C"/>
      <stop offset="1" stop-color="#D2DF4E"/>
    </linearGradient>
    <linearGradient id="paint10_linear_436_5194" x1="58.9617" y1="49.7427" x2="353.758" y2="76.5998" gradientUnits="userSpaceOnUse">
      <stop stop-color="#06718A"/>
      <stop offset="0.0834" stop-color="#08768E"/>
      <stop offset="0.1776" stop-color="#0F8398"/>
      <stop offset="0.277" stop-color="#1199AA"/>
      <stop offset="0.3794" stop-color="#13B7C3"/>
      <stop offset="0.3816" stop-color="#16B8C4"/>
      <stop offset="0.3851" stop-color="#17AEBC"/>
      <stop offset="0.3953" stop-color="#0B93A7"/>
      <stop offset="0.4071" stop-color="#0E7D96"/>
      <stop offset="0.4208" stop-color="#0A6D89"/>
      <stop offset="0.4378" stop-color="#0B6280"/>
      <stop offset="0.4617" stop-color="#055B7A"/>
      <stop offset="0.5279" stop-color="#065978"/>
      <stop offset="0.5382" stop-color="#297475"/>
      <stop offset="0.5511" stop-color="#508F73"/>
      <stop offset="0.565" stop-color="#71A771"/>
      <stop offset="0.5797" stop-color="#8CBB6F"/>
      <stop offset="0.5956" stop-color="#A1CA6D"/>
      <stop offset="0.6133" stop-color="#B0D46C"/>
      <stop offset="0.6343" stop-color="#B9D76D"/>
      <stop offset="0.6665" stop-color="#BCD86E"/>
      <stop offset="0.691" stop-color="#B5D559"/>
      <stop offset="0.721" stop-color="#B2D34C"/>
      <stop offset="0.7595" stop-color="#B1D244"/>
      <stop offset="0.8346" stop-color="#AFD243"/>
      <stop offset="0.8525" stop-color="#BCD747"/>
      <stop offset="0.8812" stop-color="#C8DB4B"/>
      <stop offset="0.919" stop-color="#D1DE4C"/>
      <stop offset="1" stop-color="#D2DF4E"/>
    </linearGradient>
    <linearGradient id="paint11_linear_436_5194" x1="58.3875" y1="55.6887" x2="355.387" y2="82.7466" gradientUnits="userSpaceOnUse">
      <stop stop-color="#06718A"/>
      <stop offset="0.0834" stop-color="#08768E"/>
      <stop offset="0.1776" stop-color="#0F8398"/>
      <stop offset="0.277" stop-color="#1199AA"/>
      <stop offset="0.3794" stop-color="#13B7C3"/>
      <stop offset="0.3816" stop-color="#16B8C4"/>
      <stop offset="0.3851" stop-color="#17AEBC"/>
      <stop offset="0.3953" stop-color="#0B93A7"/>
      <stop offset="0.4071" stop-color="#0E7D96"/>
      <stop offset="0.4208" stop-color="#0A6D89"/>
      <stop offset="0.4378" stop-color="#0B6280"/>
      <stop offset="0.4617" stop-color="#055B7A"/>
      <stop offset="0.5279" stop-color="#065978"/>
      <stop offset="0.5382" stop-color="#297475"/>
      <stop offset="0.5511" stop-color="#508F73"/>
      <stop offset="0.565" stop-color="#71A771"/>
      <stop offset="0.5797" stop-color="#8CBB6F"/>
      <stop offset="0.5956" stop-color="#A1CA6D"/>
      <stop offset="0.6133" stop-color="#B0D46C"/>
      <stop offset="0.6343" stop-color="#B9D76D"/>
      <stop offset="0.6665" stop-color="#BCD86E"/>
      <stop offset="0.691" stop-color="#B5D559"/>
      <stop offset="0.721" stop-color="#B2D34C"/>
      <stop offset="0.7595" stop-color="#B1D244"/>
      <stop offset="0.8346" stop-color="#AFD243"/>
      <stop offset="0.8525" stop-color="#BCD747"/>
      <stop offset="0.8812" stop-color="#C8DB4B"/>
      <stop offset="0.919" stop-color="#D1DE4C"/>
      <stop offset="1" stop-color="#D2DF4E"/>
    </linearGradient>
    <linearGradient id="paint12_linear_436_5194" x1="58.7248" y1="52.6878" x2="354.742" y2="79.6562" gradientUnits="userSpaceOnUse">
      <stop stop-color="#06718A"/>
      <stop offset="0.0834" stop-color="#08768E"/>
      <stop offset="0.1776" stop-color="#0F8398"/>
      <stop offset="0.277" stop-color="#1199AA"/>
      <stop offset="0.3794" stop-color="#13B7C3"/>
      <stop offset="0.3816" stop-color="#16B8C4"/>
      <stop offset="0.3851" stop-color="#17AEBC"/>
      <stop offset="0.3953" stop-color="#0B93A7"/>
      <stop offset="0.4071" stop-color="#0E7D96"/>
      <stop offset="0.4208" stop-color="#0A6D89"/>
      <stop offset="0.4378" stop-color="#0B6280"/>
      <stop offset="0.4617" stop-color="#055B7A"/>
      <stop offset="0.5279" stop-color="#065978"/>
      <stop offset="0.5382" stop-color="#297475"/>
      <stop offset="0.5511" stop-color="#508F73"/>
      <stop offset="0.565" stop-color="#71A771"/>
      <stop offset="0.5797" stop-color="#8CBB6F"/>
      <stop offset="0.5956" stop-color="#A1CA6D"/>
      <stop offset="0.6133" stop-color="#B0D46C"/>
      <stop offset="0.6343" stop-color="#B9D76D"/>
      <stop offset="0.6665" stop-color="#BCD86E"/>
      <stop offset="0.691" stop-color="#B5D559"/>
      <stop offset="0.721" stop-color="#B2D34C"/>
      <stop offset="0.7595" stop-color="#B1D244"/>
      <stop offset="0.8346" stop-color="#AFD243"/>
      <stop offset="0.8525" stop-color="#BCD747"/>
      <stop offset="0.8812" stop-color="#C8DB4B"/>
      <stop offset="0.919" stop-color="#D1DE4C"/>
      <stop offset="1" stop-color="#D2DF4E"/>
    </linearGradient>
    <linearGradient id="paint13_linear_436_5194" x1="58.3431" y1="49.9455" x2="354.526" y2="76.9288" gradientUnits="userSpaceOnUse">
      <stop stop-color="#06718A"/>
      <stop offset="0.0834" stop-color="#08768E"/>
      <stop offset="0.1776" stop-color="#0F8398"/>
      <stop offset="0.277" stop-color="#1199AA"/>
      <stop offset="0.3794" stop-color="#13B7C3"/>
      <stop offset="0.3816" stop-color="#16B8C4"/>
      <stop offset="0.3851" stop-color="#17AEBC"/>
      <stop offset="0.3953" stop-color="#0B93A7"/>
      <stop offset="0.4071" stop-color="#0E7D96"/>
      <stop offset="0.4208" stop-color="#0A6D89"/>
      <stop offset="0.4378" stop-color="#0B6280"/>
      <stop offset="0.4617" stop-color="#055B7A"/>
      <stop offset="0.5279" stop-color="#065978"/>
      <stop offset="0.5382" stop-color="#297475"/>
      <stop offset="0.5511" stop-color="#508F73"/>
      <stop offset="0.565" stop-color="#71A771"/>
      <stop offset="0.5797" stop-color="#8CBB6F"/>
      <stop offset="0.5956" stop-color="#A1CA6D"/>
      <stop offset="0.6133" stop-color="#B0D46C"/>
      <stop offset="0.6343" stop-color="#B9D76D"/>
      <stop offset="0.6665" stop-color="#BCD86E"/>
      <stop offset="0.691" stop-color="#B5D559"/>
      <stop offset="0.721" stop-color="#B2D34C"/>
      <stop offset="0.7595" stop-color="#B1D244"/>
      <stop offset="0.8346" stop-color="#AFD243"/>
      <stop offset="0.8525" stop-color="#BCD747"/>
      <stop offset="0.8812" stop-color="#C8DB4B"/>
      <stop offset="0.919" stop-color="#D1DE4C"/>
      <stop offset="1" stop-color="#D2DF4E"/>
    </linearGradient>
    <linearGradient id="paint14_linear_436_5194" x1="58.7767" y1="56.4129" x2="354.457" y2="83.3506" gradientUnits="userSpaceOnUse">
      <stop stop-color="#06718A"/>
      <stop offset="0.0834" stop-color="#08768E"/>
      <stop offset="0.1776" stop-color="#0F8398"/>
      <stop offset="0.277" stop-color="#1199AA"/>
      <stop offset="0.3794" stop-color="#13B7C3"/>
      <stop offset="0.3816" stop-color="#16B8C4"/>
      <stop offset="0.3851" stop-color="#17AEBC"/>
      <stop offset="0.3953" stop-color="#0B93A7"/>
      <stop offset="0.4071" stop-color="#0E7D96"/>
      <stop offset="0.4208" stop-color="#0A6D89"/>
      <stop offset="0.4378" stop-color="#0B6280"/>
      <stop offset="0.4617" stop-color="#055B7A"/>
      <stop offset="0.5279" stop-color="#065978"/>
      <stop offset="0.5382" stop-color="#297475"/>
      <stop offset="0.5511" stop-color="#508F73"/>
      <stop offset="0.565" stop-color="#71A771"/>
      <stop offset="0.5797" stop-color="#8CBB6F"/>
      <stop offset="0.5956" stop-color="#A1CA6D"/>
      <stop offset="0.6133" stop-color="#B0D46C"/>
      <stop offset="0.6343" stop-color="#B9D76D"/>
      <stop offset="0.6665" stop-color="#BCD86E"/>
      <stop offset="0.691" stop-color="#B5D559"/>
      <stop offset="0.721" stop-color="#B2D34C"/>
      <stop offset="0.7595" stop-color="#B1D244"/>
      <stop offset="0.8346" stop-color="#AFD243"/>
      <stop offset="0.8525" stop-color="#BCD747"/>
      <stop offset="0.8812" stop-color="#C8DB4B"/>
      <stop offset="0.919" stop-color="#D1DE4C"/>
      <stop offset="1" stop-color="#D2DF4E"/>
    </linearGradient>
    <linearGradient id="paint15_linear_436_5194" x1="59.0455" y1="48.4919" x2="353.769" y2="75.3424" gradientUnits="userSpaceOnUse">
      <stop stop-color="#06718A"/>
      <stop offset="0.0834" stop-color="#08768E"/>
      <stop offset="0.1776" stop-color="#0F8398"/>
      <stop offset="0.277" stop-color="#1199AA"/>
      <stop offset="0.3794" stop-color="#13B7C3"/>
      <stop offset="0.3816" stop-color="#16B8C4"/>
      <stop offset="0.3851" stop-color="#17AEBC"/>
      <stop offset="0.3953" stop-color="#0B93A7"/>
      <stop offset="0.4071" stop-color="#0E7D96"/>
      <stop offset="0.4208" stop-color="#0A6D89"/>
      <stop offset="0.4378" stop-color="#0B6280"/>
      <stop offset="0.4617" stop-color="#055B7A"/>
      <stop offset="0.5279" stop-color="#065978"/>
      <stop offset="0.5382" stop-color="#297475"/>
      <stop offset="0.5511" stop-color="#508F73"/>
      <stop offset="0.565" stop-color="#71A771"/>
      <stop offset="0.5797" stop-color="#8CBB6F"/>
      <stop offset="0.5956" stop-color="#A1CA6D"/>
      <stop offset="0.6133" stop-color="#B0D46C"/>
      <stop offset="0.6343" stop-color="#B9D76D"/>
      <stop offset="0.6665" stop-color="#BCD86E"/>
      <stop offset="0.691" stop-color="#B5D559"/>
      <stop offset="0.721" stop-color="#B2D34C"/>
      <stop offset="0.7595" stop-color="#B1D244"/>
      <stop offset="0.8346" stop-color="#AFD243"/>
      <stop offset="0.8525" stop-color="#BCD747"/>
      <stop offset="0.8812" stop-color="#C8DB4B"/>
      <stop offset="0.919" stop-color="#D1DE4C"/>
      <stop offset="1" stop-color="#D2DF4E"/>
    </linearGradient>
    <linearGradient id="paint16_linear_436_5194" x1="58.6753" y1="56.6212" x2="354.633" y2="83.5841" gradientUnits="userSpaceOnUse">
      <stop stop-color="#06718A"/>
      <stop offset="0.0834" stop-color="#08768E"/>
      <stop offset="0.1776" stop-color="#0F8398"/>
      <stop offset="0.277" stop-color="#1199AA"/>
      <stop offset="0.3794" stop-color="#13B7C3"/>
      <stop offset="0.3816" stop-color="#16B8C4"/>
      <stop offset="0.3851" stop-color="#17AEBC"/>
      <stop offset="0.3953" stop-color="#0B93A7"/>
      <stop offset="0.4071" stop-color="#0E7D96"/>
      <stop offset="0.4208" stop-color="#0A6D89"/>
      <stop offset="0.4378" stop-color="#0B6280"/>
      <stop offset="0.4617" stop-color="#055B7A"/>
      <stop offset="0.5279" stop-color="#065978"/>
      <stop offset="0.5382" stop-color="#297475"/>
      <stop offset="0.5511" stop-color="#508F73"/>
      <stop offset="0.565" stop-color="#71A771"/>
      <stop offset="0.5797" stop-color="#8CBB6F"/>
      <stop offset="0.5956" stop-color="#A1CA6D"/>
      <stop offset="0.6133" stop-color="#B0D46C"/>
      <stop offset="0.6343" stop-color="#B9D76D"/>
      <stop offset="0.6665" stop-color="#BCD86E"/>
      <stop offset="0.691" stop-color="#B5D559"/>
      <stop offset="0.721" stop-color="#B2D34C"/>
      <stop offset="0.7595" stop-color="#B1D244"/>
      <stop offset="0.8346" stop-color="#AFD243"/>
      <stop offset="0.8525" stop-color="#BCD747"/>
      <stop offset="0.8812" stop-color="#C8DB4B"/>
      <stop offset="0.919" stop-color="#D1DE4C"/>
      <stop offset="1" stop-color="#D2DF4E"/>
    </linearGradient>
    <linearGradient id="paint17_linear_436_5194" x1="58.6768" y1="51.5682" x2="354.321" y2="78.5026" gradientUnits="userSpaceOnUse">
      <stop stop-color="#06718A"/>
      <stop offset="0.0834" stop-color="#08768E"/>
      <stop offset="0.1776" stop-color="#0F8398"/>
      <stop offset="0.277" stop-color="#1199AA"/>
      <stop offset="0.3794" stop-color="#13B7C3"/>
      <stop offset="0.3816" stop-color="#16B8C4"/>
      <stop offset="0.3851" stop-color="#17AEBC"/>
      <stop offset="0.3953" stop-color="#0B93A7"/>
      <stop offset="0.4071" stop-color="#0E7D96"/>
      <stop offset="0.4208" stop-color="#0A6D89"/>
      <stop offset="0.4378" stop-color="#0B6280"/>
      <stop offset="0.4617" stop-color="#055B7A"/>
      <stop offset="0.5279" stop-color="#065978"/>
      <stop offset="0.5382" stop-color="#297475"/>
      <stop offset="0.5511" stop-color="#508F73"/>
      <stop offset="0.565" stop-color="#71A771"/>
      <stop offset="0.5797" stop-color="#8CBB6F"/>
      <stop offset="0.5956" stop-color="#A1CA6D"/>
      <stop offset="0.6133" stop-color="#B0D46C"/>
      <stop offset="0.6343" stop-color="#B9D76D"/>
      <stop offset="0.6665" stop-color="#BCD86E"/>
      <stop offset="0.691" stop-color="#B5D559"/>
      <stop offset="0.721" stop-color="#B2D34C"/>
      <stop offset="0.7595" stop-color="#B1D244"/>
      <stop offset="0.8346" stop-color="#AFD243"/>
      <stop offset="0.8525" stop-color="#BCD747"/>
      <stop offset="0.8812" stop-color="#C8DB4B"/>
      <stop offset="0.919" stop-color="#D1DE4C"/>
      <stop offset="1" stop-color="#D2DF4E"/>
    </linearGradient>
    <linearGradient id="paint18_linear_436_5194" x1="58.6511" y1="47.9614" x2="354.295" y2="74.8957" gradientUnits="userSpaceOnUse">
      <stop stop-color="#06718A"/>
      <stop offset="0.0834" stop-color="#08768E"/>
      <stop offset="0.1776" stop-color="#0F8398"/>
      <stop offset="0.277" stop-color="#1199AA"/>
      <stop offset="0.3794" stop-color="#13B7C3"/>
      <stop offset="0.3816" stop-color="#16B8C4"/>
      <stop offset="0.3851" stop-color="#17AEBC"/>
      <stop offset="0.3953" stop-color="#0B93A7"/>
      <stop offset="0.4071" stop-color="#0E7D96"/>
      <stop offset="0.4208" stop-color="#0A6D89"/>
      <stop offset="0.4378" stop-color="#0B6280"/>
      <stop offset="0.4617" stop-color="#055B7A"/>
      <stop offset="0.5279" stop-color="#065978"/>
      <stop offset="0.5382" stop-color="#297475"/>
      <stop offset="0.5511" stop-color="#508F73"/>
      <stop offset="0.565" stop-color="#71A771"/>
      <stop offset="0.5797" stop-color="#8CBB6F"/>
      <stop offset="0.5956" stop-color="#A1CA6D"/>
      <stop offset="0.6133" stop-color="#B0D46C"/>
      <stop offset="0.6343" stop-color="#B9D76D"/>
      <stop offset="0.6665" stop-color="#BCD86E"/>
      <stop offset="0.691" stop-color="#B5D559"/>
      <stop offset="0.721" stop-color="#B2D34C"/>
      <stop offset="0.7595" stop-color="#B1D244"/>
      <stop offset="0.8346" stop-color="#AFD243"/>
      <stop offset="0.8525" stop-color="#BCD747"/>
      <stop offset="0.8812" stop-color="#C8DB4B"/>
      <stop offset="0.919" stop-color="#D1DE4C"/>
      <stop offset="1" stop-color="#D2DF4E"/>
    </linearGradient>
    <linearGradient id="paint19_linear_436_5194" x1="57.5748" y1="48.3468" x2="355.45" y2="75.4844" gradientUnits="userSpaceOnUse">
      <stop stop-color="#06718A"/>
      <stop offset="0.0834" stop-color="#08768E"/>
      <stop offset="0.1776" stop-color="#0F8398"/>
      <stop offset="0.277" stop-color="#1199AA"/>
      <stop offset="0.3794" stop-color="#13B7C3"/>
      <stop offset="0.3816" stop-color="#16B8C4"/>
      <stop offset="0.3851" stop-color="#17AEBC"/>
      <stop offset="0.3953" stop-color="#0B93A7"/>
      <stop offset="0.4071" stop-color="#0E7D96"/>
      <stop offset="0.4208" stop-color="#0A6D89"/>
      <stop offset="0.4378" stop-color="#0B6280"/>
      <stop offset="0.4617" stop-color="#055B7A"/>
      <stop offset="0.5279" stop-color="#065978"/>
      <stop offset="0.5382" stop-color="#297475"/>
      <stop offset="0.5511" stop-color="#508F73"/>
      <stop offset="0.565" stop-color="#71A771"/>
      <stop offset="0.5797" stop-color="#8CBB6F"/>
      <stop offset="0.5956" stop-color="#A1CA6D"/>
      <stop offset="0.6133" stop-color="#B0D46C"/>
      <stop offset="0.6343" stop-color="#B9D76D"/>
      <stop offset="0.6665" stop-color="#BCD86E"/>
      <stop offset="0.691" stop-color="#B5D559"/>
      <stop offset="0.721" stop-color="#B2D34C"/>
      <stop offset="0.7595" stop-color="#B1D244"/>
      <stop offset="0.8346" stop-color="#AFD243"/>
      <stop offset="0.8525" stop-color="#BCD747"/>
      <stop offset="0.8812" stop-color="#C8DB4B"/>
      <stop offset="0.919" stop-color="#D1DE4C"/>
      <stop offset="1" stop-color="#D2DF4E"/>
    </linearGradient>
    <linearGradient id="paint20_linear_436_5194" x1="58.1824" y1="55.2165" x2="356.077" y2="82.3558" gradientUnits="userSpaceOnUse">
      <stop stop-color="#06718A"/>
      <stop offset="0.0834" stop-color="#08768E"/>
      <stop offset="0.1776" stop-color="#0F8398"/>
      <stop offset="0.277" stop-color="#1199AA"/>
      <stop offset="0.3794" stop-color="#13B7C3"/>
      <stop offset="0.3816" stop-color="#16B8C4"/>
      <stop offset="0.3851" stop-color="#17AEBC"/>
      <stop offset="0.3953" stop-color="#0B93A7"/>
      <stop offset="0.4071" stop-color="#0E7D96"/>
      <stop offset="0.4208" stop-color="#0A6D89"/>
      <stop offset="0.4378" stop-color="#0B6280"/>
      <stop offset="0.4617" stop-color="#055B7A"/>
      <stop offset="0.5279" stop-color="#065978"/>
      <stop offset="0.5382" stop-color="#297475"/>
      <stop offset="0.5511" stop-color="#508F73"/>
      <stop offset="0.565" stop-color="#71A771"/>
      <stop offset="0.5797" stop-color="#8CBB6F"/>
      <stop offset="0.5956" stop-color="#A1CA6D"/>
      <stop offset="0.6133" stop-color="#B0D46C"/>
      <stop offset="0.6343" stop-color="#B9D76D"/>
      <stop offset="0.6665" stop-color="#BCD86E"/>
      <stop offset="0.691" stop-color="#B5D559"/>
      <stop offset="0.721" stop-color="#B2D34C"/>
      <stop offset="0.7595" stop-color="#B1D244"/>
      <stop offset="0.8346" stop-color="#AFD243"/>
      <stop offset="0.8525" stop-color="#BCD747"/>
      <stop offset="0.8812" stop-color="#C8DB4B"/>
      <stop offset="0.919" stop-color="#D1DE4C"/>
      <stop offset="1" stop-color="#D2DF4E"/>
    </linearGradient>
    <linearGradient id="paint21_linear_436_5194" x1="58.7975" y1="58.1324" x2="352.87" y2="84.9236" gradientUnits="userSpaceOnUse">
      <stop stop-color="#06718A"/>
      <stop offset="0.0834" stop-color="#08768E"/>
      <stop offset="0.1776" stop-color="#0F8398"/>
      <stop offset="0.277" stop-color="#1199AA"/>
      <stop offset="0.3794" stop-color="#13B7C3"/>
      <stop offset="0.3816" stop-color="#16B8C4"/>
      <stop offset="0.3851" stop-color="#17AEBC"/>
      <stop offset="0.3953" stop-color="#0B93A7"/>
      <stop offset="0.4071" stop-color="#0E7D96"/>
      <stop offset="0.4208" stop-color="#0A6D89"/>
      <stop offset="0.4378" stop-color="#0B6280"/>
      <stop offset="0.4617" stop-color="#055B7A"/>
      <stop offset="0.5279" stop-color="#065978"/>
      <stop offset="0.5382" stop-color="#297475"/>
      <stop offset="0.5511" stop-color="#508F73"/>
      <stop offset="0.565" stop-color="#71A771"/>
      <stop offset="0.5797" stop-color="#8CBB6F"/>
      <stop offset="0.5956" stop-color="#A1CA6D"/>
      <stop offset="0.6133" stop-color="#B0D46C"/>
      <stop offset="0.6343" stop-color="#B9D76D"/>
      <stop offset="0.6665" stop-color="#BCD86E"/>
      <stop offset="0.691" stop-color="#B5D559"/>
      <stop offset="0.721" stop-color="#B2D34C"/>
      <stop offset="0.7595" stop-color="#B1D244"/>
      <stop offset="0.8346" stop-color="#AFD243"/>
      <stop offset="0.8525" stop-color="#BCD747"/>
      <stop offset="0.8812" stop-color="#C8DB4B"/>
      <stop offset="0.919" stop-color="#D1DE4C"/>
      <stop offset="1" stop-color="#D2DF4E"/>
    </linearGradient>
    <linearGradient id="paint22_linear_436_5194" x1="59.1142" y1="52.109" x2="353.179" y2="78.8994" gradientUnits="userSpaceOnUse">
      <stop stop-color="#06718A"/>
      <stop offset="0.0834" stop-color="#08768E"/>
      <stop offset="0.1776" stop-color="#0F8398"/>
      <stop offset="0.277" stop-color="#1199AA"/>
      <stop offset="0.3794" stop-color="#13B7C3"/>
      <stop offset="0.3816" stop-color="#16B8C4"/>
      <stop offset="0.3851" stop-color="#17AEBC"/>
      <stop offset="0.3953" stop-color="#0B93A7"/>
      <stop offset="0.4071" stop-color="#0E7D96"/>
      <stop offset="0.4208" stop-color="#0A6D89"/>
      <stop offset="0.4378" stop-color="#0B6280"/>
      <stop offset="0.4617" stop-color="#055B7A"/>
      <stop offset="0.5279" stop-color="#065978"/>
      <stop offset="0.5382" stop-color="#297475"/>
      <stop offset="0.5511" stop-color="#508F73"/>
      <stop offset="0.565" stop-color="#71A771"/>
      <stop offset="0.5797" stop-color="#8CBB6F"/>
      <stop offset="0.5956" stop-color="#A1CA6D"/>
      <stop offset="0.6133" stop-color="#B0D46C"/>
      <stop offset="0.6343" stop-color="#B9D76D"/>
      <stop offset="0.6665" stop-color="#BCD86E"/>
      <stop offset="0.691" stop-color="#B5D559"/>
      <stop offset="0.721" stop-color="#B2D34C"/>
      <stop offset="0.7595" stop-color="#B1D244"/>
      <stop offset="0.8346" stop-color="#AFD243"/>
      <stop offset="0.8525" stop-color="#BCD747"/>
      <stop offset="0.8812" stop-color="#C8DB4B"/>
      <stop offset="0.919" stop-color="#D1DE4C"/>
      <stop offset="1" stop-color="#D2DF4E"/>
    </linearGradient>
    <linearGradient id="paint23_linear_436_5194" x1="58.9787" y1="56.1416" x2="352.359" y2="82.8698" gradientUnits="userSpaceOnUse">
      <stop stop-color="#06718A"/>
      <stop offset="0.0834" stop-color="#08768E"/>
      <stop offset="0.1776" stop-color="#0F8398"/>
      <stop offset="0.277" stop-color="#1199AA"/>
      <stop offset="0.3794" stop-color="#13B7C3"/>
      <stop offset="0.3816" stop-color="#16B8C4"/>
      <stop offset="0.3851" stop-color="#17AEBC"/>
      <stop offset="0.3953" stop-color="#0B93A7"/>
      <stop offset="0.4071" stop-color="#0E7D96"/>
      <stop offset="0.4208" stop-color="#0A6D89"/>
      <stop offset="0.4378" stop-color="#0B6280"/>
      <stop offset="0.4617" stop-color="#055B7A"/>
      <stop offset="0.5279" stop-color="#065978"/>
      <stop offset="0.5382" stop-color="#297475"/>
      <stop offset="0.5511" stop-color="#508F73"/>
      <stop offset="0.565" stop-color="#71A771"/>
      <stop offset="0.5797" stop-color="#8CBB6F"/>
      <stop offset="0.5956" stop-color="#A1CA6D"/>
      <stop offset="0.6133" stop-color="#B0D46C"/>
      <stop offset="0.6343" stop-color="#B9D76D"/>
      <stop offset="0.6665" stop-color="#BCD86E"/>
      <stop offset="0.691" stop-color="#B5D559"/>
      <stop offset="0.721" stop-color="#B2D34C"/>
      <stop offset="0.7595" stop-color="#B1D244"/>
      <stop offset="0.8346" stop-color="#AFD243"/>
      <stop offset="0.8525" stop-color="#BCD747"/>
      <stop offset="0.8812" stop-color="#C8DB4B"/>
      <stop offset="0.919" stop-color="#D1DE4C"/>
      <stop offset="1" stop-color="#D2DF4E"/>
    </linearGradient>
    <linearGradient id="paint24_linear_436_5194" x1="59.0421" y1="55.3615" x2="352.415" y2="82.0889" gradientUnits="userSpaceOnUse">
      <stop stop-color="#06718A"/>
      <stop offset="0.0834" stop-color="#08768E"/>
      <stop offset="0.1776" stop-color="#0F8398"/>
      <stop offset="0.277" stop-color="#1199AA"/>
      <stop offset="0.3794" stop-color="#13B7C3"/>
      <stop offset="0.3816" stop-color="#16B8C4"/>
      <stop offset="0.3851" stop-color="#17AEBC"/>
      <stop offset="0.3953" stop-color="#0B93A7"/>
      <stop offset="0.4071" stop-color="#0E7D96"/>
      <stop offset="0.4208" stop-color="#0A6D89"/>
      <stop offset="0.4378" stop-color="#0B6280"/>
      <stop offset="0.4617" stop-color="#055B7A"/>
      <stop offset="0.5279" stop-color="#065978"/>
      <stop offset="0.5382" stop-color="#297475"/>
      <stop offset="0.5511" stop-color="#508F73"/>
      <stop offset="0.565" stop-color="#71A771"/>
      <stop offset="0.5797" stop-color="#8CBB6F"/>
      <stop offset="0.5956" stop-color="#A1CA6D"/>
      <stop offset="0.6133" stop-color="#B0D46C"/>
      <stop offset="0.6343" stop-color="#B9D76D"/>
      <stop offset="0.6665" stop-color="#BCD86E"/>
      <stop offset="0.691" stop-color="#B5D559"/>
      <stop offset="0.721" stop-color="#B2D34C"/>
      <stop offset="0.7595" stop-color="#B1D244"/>
      <stop offset="0.8346" stop-color="#AFD243"/>
      <stop offset="0.8525" stop-color="#BCD747"/>
      <stop offset="0.8812" stop-color="#C8DB4B"/>
      <stop offset="0.919" stop-color="#D1DE4C"/>
      <stop offset="1" stop-color="#D2DF4E"/>
    </linearGradient>
    <linearGradient id="paint25_linear_436_5194" x1="59.4248" y1="50.4277" x2="352.801" y2="77.1554" gradientUnits="userSpaceOnUse">
      <stop stop-color="#06718A"/>
      <stop offset="0.0834" stop-color="#08768E"/>
      <stop offset="0.1776" stop-color="#0F8398"/>
      <stop offset="0.277" stop-color="#1199AA"/>
      <stop offset="0.3794" stop-color="#13B7C3"/>
      <stop offset="0.3816" stop-color="#16B8C4"/>
      <stop offset="0.3851" stop-color="#17AEBC"/>
      <stop offset="0.3953" stop-color="#0B93A7"/>
      <stop offset="0.4071" stop-color="#0E7D96"/>
      <stop offset="0.4208" stop-color="#0A6D89"/>
      <stop offset="0.4378" stop-color="#0B6280"/>
      <stop offset="0.4617" stop-color="#055B7A"/>
      <stop offset="0.5279" stop-color="#065978"/>
      <stop offset="0.5382" stop-color="#297475"/>
      <stop offset="0.5511" stop-color="#508F73"/>
      <stop offset="0.565" stop-color="#71A771"/>
      <stop offset="0.5797" stop-color="#8CBB6F"/>
      <stop offset="0.5956" stop-color="#A1CA6D"/>
      <stop offset="0.6133" stop-color="#B0D46C"/>
      <stop offset="0.6343" stop-color="#B9D76D"/>
      <stop offset="0.6665" stop-color="#BCD86E"/>
      <stop offset="0.691" stop-color="#B5D559"/>
      <stop offset="0.721" stop-color="#B2D34C"/>
      <stop offset="0.7595" stop-color="#B1D244"/>
      <stop offset="0.8346" stop-color="#AFD243"/>
      <stop offset="0.8525" stop-color="#BCD747"/>
      <stop offset="0.8812" stop-color="#C8DB4B"/>
      <stop offset="0.919" stop-color="#D1DE4C"/>
      <stop offset="1" stop-color="#D2DF4E"/>
    </linearGradient>
    <linearGradient id="paint26_linear_436_5194" x1="58.807" y1="57.6245" x2="353.271" y2="84.4513" gradientUnits="userSpaceOnUse">
      <stop stop-color="#06718A"/>
      <stop offset="0.0834" stop-color="#08768E"/>
      <stop offset="0.1776" stop-color="#0F8398"/>
      <stop offset="0.277" stop-color="#1199AA"/>
      <stop offset="0.3794" stop-color="#13B7C3"/>
      <stop offset="0.3816" stop-color="#16B8C4"/>
      <stop offset="0.3851" stop-color="#17AEBC"/>
      <stop offset="0.3953" stop-color="#0B93A7"/>
      <stop offset="0.4071" stop-color="#0E7D96"/>
      <stop offset="0.4208" stop-color="#0A6D89"/>
      <stop offset="0.4378" stop-color="#0B6280"/>
      <stop offset="0.4617" stop-color="#055B7A"/>
      <stop offset="0.5279" stop-color="#065978"/>
      <stop offset="0.5382" stop-color="#297475"/>
      <stop offset="0.5511" stop-color="#508F73"/>
      <stop offset="0.565" stop-color="#71A771"/>
      <stop offset="0.5797" stop-color="#8CBB6F"/>
      <stop offset="0.5956" stop-color="#A1CA6D"/>
      <stop offset="0.6133" stop-color="#B0D46C"/>
      <stop offset="0.6343" stop-color="#B9D76D"/>
      <stop offset="0.6665" stop-color="#BCD86E"/>
      <stop offset="0.691" stop-color="#B5D559"/>
      <stop offset="0.721" stop-color="#B2D34C"/>
      <stop offset="0.7595" stop-color="#B1D244"/>
      <stop offset="0.8346" stop-color="#AFD243"/>
      <stop offset="0.8525" stop-color="#BCD747"/>
      <stop offset="0.8812" stop-color="#C8DB4B"/>
      <stop offset="0.919" stop-color="#D1DE4C"/>
      <stop offset="1" stop-color="#D2DF4E"/>
    </linearGradient>
    <linearGradient id="paint27_linear_436_5194" x1="59.0523" y1="50.8652" x2="353.53" y2="77.6933" gradientUnits="userSpaceOnUse">
      <stop stop-color="#06718A"/>
      <stop offset="0.0834" stop-color="#08768E"/>
      <stop offset="0.1776" stop-color="#0F8398"/>
      <stop offset="0.277" stop-color="#1199AA"/>
      <stop offset="0.3794" stop-color="#13B7C3"/>
      <stop offset="0.3816" stop-color="#16B8C4"/>
      <stop offset="0.3851" stop-color="#17AEBC"/>
      <stop offset="0.3953" stop-color="#0B93A7"/>
      <stop offset="0.4071" stop-color="#0E7D96"/>
      <stop offset="0.4208" stop-color="#0A6D89"/>
      <stop offset="0.4378" stop-color="#0B6280"/>
      <stop offset="0.4617" stop-color="#055B7A"/>
      <stop offset="0.5279" stop-color="#065978"/>
      <stop offset="0.5382" stop-color="#297475"/>
      <stop offset="0.5511" stop-color="#508F73"/>
      <stop offset="0.565" stop-color="#71A771"/>
      <stop offset="0.5797" stop-color="#8CBB6F"/>
      <stop offset="0.5956" stop-color="#A1CA6D"/>
      <stop offset="0.6133" stop-color="#B0D46C"/>
      <stop offset="0.6343" stop-color="#B9D76D"/>
      <stop offset="0.6665" stop-color="#BCD86E"/>
      <stop offset="0.691" stop-color="#B5D559"/>
      <stop offset="0.721" stop-color="#B2D34C"/>
      <stop offset="0.7595" stop-color="#B1D244"/>
      <stop offset="0.8346" stop-color="#AFD243"/>
      <stop offset="0.8525" stop-color="#BCD747"/>
      <stop offset="0.8812" stop-color="#C8DB4B"/>
      <stop offset="0.919" stop-color="#D1DE4C"/>
      <stop offset="1" stop-color="#D2DF4E"/>
    </linearGradient>
    <linearGradient id="paint28_linear_436_5194" x1="59.4004" y1="52.5357" x2="352.347" y2="79.2244" gradientUnits="userSpaceOnUse">
      <stop stop-color="#06718A"/>
      <stop offset="0.0834" stop-color="#08768E"/>
      <stop offset="0.1776" stop-color="#0F8398"/>
      <stop offset="0.277" stop-color="#1199AA"/>
      <stop offset="0.3794" stop-color="#13B7C3"/>
      <stop offset="0.3816" stop-color="#16B8C4"/>
      <stop offset="0.3851" stop-color="#17AEBC"/>
      <stop offset="0.3953" stop-color="#0B93A7"/>
      <stop offset="0.4071" stop-color="#0E7D96"/>
      <stop offset="0.4208" stop-color="#0A6D89"/>
      <stop offset="0.4378" stop-color="#0B6280"/>
      <stop offset="0.4617" stop-color="#055B7A"/>
      <stop offset="0.5279" stop-color="#065978"/>
      <stop offset="0.5382" stop-color="#297475"/>
      <stop offset="0.5511" stop-color="#508F73"/>
      <stop offset="0.565" stop-color="#71A771"/>
      <stop offset="0.5797" stop-color="#8CBB6F"/>
      <stop offset="0.5956" stop-color="#A1CA6D"/>
      <stop offset="0.6133" stop-color="#B0D46C"/>
      <stop offset="0.6343" stop-color="#B9D76D"/>
      <stop offset="0.6665" stop-color="#BCD86E"/>
      <stop offset="0.691" stop-color="#B5D559"/>
      <stop offset="0.721" stop-color="#B2D34C"/>
      <stop offset="0.7595" stop-color="#B1D244"/>
      <stop offset="0.8346" stop-color="#AFD243"/>
      <stop offset="0.8525" stop-color="#BCD747"/>
      <stop offset="0.8812" stop-color="#C8DB4B"/>
      <stop offset="0.919" stop-color="#D1DE4C"/>
      <stop offset="1" stop-color="#D2DF4E"/>
    </linearGradient>
    <linearGradient id="paint29_linear_436_5194" x1="58.8877" y1="57.8176" x2="352.169" y2="84.5367" gradientUnits="userSpaceOnUse">
      <stop stop-color="#06718A"/>
      <stop offset="0.0834" stop-color="#08768E"/>
      <stop offset="0.1776" stop-color="#0F8398"/>
      <stop offset="0.277" stop-color="#1199AA"/>
      <stop offset="0.3794" stop-color="#13B7C3"/>
      <stop offset="0.3816" stop-color="#16B8C4"/>
      <stop offset="0.3851" stop-color="#17AEBC"/>
      <stop offset="0.3953" stop-color="#0B93A7"/>
      <stop offset="0.4071" stop-color="#0E7D96"/>
      <stop offset="0.4208" stop-color="#0A6D89"/>
      <stop offset="0.4378" stop-color="#0B6280"/>
      <stop offset="0.4617" stop-color="#055B7A"/>
      <stop offset="0.5279" stop-color="#065978"/>
      <stop offset="0.5382" stop-color="#297475"/>
      <stop offset="0.5511" stop-color="#508F73"/>
      <stop offset="0.565" stop-color="#71A771"/>
      <stop offset="0.5797" stop-color="#8CBB6F"/>
      <stop offset="0.5956" stop-color="#A1CA6D"/>
      <stop offset="0.6133" stop-color="#B0D46C"/>
      <stop offset="0.6343" stop-color="#B9D76D"/>
      <stop offset="0.6665" stop-color="#BCD86E"/>
      <stop offset="0.691" stop-color="#B5D559"/>
      <stop offset="0.721" stop-color="#B2D34C"/>
      <stop offset="0.7595" stop-color="#B1D244"/>
      <stop offset="0.8346" stop-color="#AFD243"/>
      <stop offset="0.8525" stop-color="#BCD747"/>
      <stop offset="0.8812" stop-color="#C8DB4B"/>
      <stop offset="0.919" stop-color="#D1DE4C"/>
      <stop offset="1" stop-color="#D2DF4E"/>
    </linearGradient>
    <linearGradient id="paint30_linear_436_5194" x1="59.2145" y1="54.899" x2="351.464" y2="81.524" gradientUnits="userSpaceOnUse">
      <stop stop-color="#06718A"/>
      <stop offset="0.0834" stop-color="#08768E"/>
      <stop offset="0.1776" stop-color="#0F8398"/>
      <stop offset="0.277" stop-color="#1199AA"/>
      <stop offset="0.3794" stop-color="#13B7C3"/>
      <stop offset="0.3816" stop-color="#16B8C4"/>
      <stop offset="0.3851" stop-color="#17AEBC"/>
      <stop offset="0.3953" stop-color="#0B93A7"/>
      <stop offset="0.4071" stop-color="#0E7D96"/>
      <stop offset="0.4208" stop-color="#0A6D89"/>
      <stop offset="0.4378" stop-color="#0B6280"/>
      <stop offset="0.4617" stop-color="#055B7A"/>
      <stop offset="0.5279" stop-color="#065978"/>
      <stop offset="0.5382" stop-color="#297475"/>
      <stop offset="0.5511" stop-color="#508F73"/>
      <stop offset="0.565" stop-color="#71A771"/>
      <stop offset="0.5797" stop-color="#8CBB6F"/>
      <stop offset="0.5956" stop-color="#A1CA6D"/>
      <stop offset="0.6133" stop-color="#B0D46C"/>
      <stop offset="0.6343" stop-color="#B9D76D"/>
      <stop offset="0.6665" stop-color="#BCD86E"/>
      <stop offset="0.691" stop-color="#B5D559"/>
      <stop offset="0.721" stop-color="#B2D34C"/>
      <stop offset="0.7595" stop-color="#B1D244"/>
      <stop offset="0.8346" stop-color="#AFD243"/>
      <stop offset="0.8525" stop-color="#BCD747"/>
      <stop offset="0.8812" stop-color="#C8DB4B"/>
      <stop offset="0.919" stop-color="#D1DE4C"/>
      <stop offset="1" stop-color="#D2DF4E"/>
    </linearGradient>
    <linearGradient id="paint31_linear_436_5194" x1="58.1836" y1="53.0671" x2="356.061" y2="80.2048" gradientUnits="userSpaceOnUse">
      <stop stop-color="#06718A"/>
      <stop offset="0.0834" stop-color="#08768E"/>
      <stop offset="0.1776" stop-color="#0F8398"/>
      <stop offset="0.277" stop-color="#1199AA"/>
      <stop offset="0.3794" stop-color="#13B7C3"/>
      <stop offset="0.3816" stop-color="#16B8C4"/>
      <stop offset="0.3851" stop-color="#17AEBC"/>
      <stop offset="0.3953" stop-color="#0B93A7"/>
      <stop offset="0.4071" stop-color="#0E7D96"/>
      <stop offset="0.4208" stop-color="#0A6D89"/>
      <stop offset="0.4378" stop-color="#0B6280"/>
      <stop offset="0.4617" stop-color="#055B7A"/>
      <stop offset="0.5279" stop-color="#065978"/>
      <stop offset="0.5382" stop-color="#297475"/>
      <stop offset="0.5511" stop-color="#508F73"/>
      <stop offset="0.565" stop-color="#71A771"/>
      <stop offset="0.5797" stop-color="#8CBB6F"/>
      <stop offset="0.5956" stop-color="#A1CA6D"/>
      <stop offset="0.6133" stop-color="#B0D46C"/>
      <stop offset="0.6343" stop-color="#B9D76D"/>
      <stop offset="0.6665" stop-color="#BCD86E"/>
      <stop offset="0.691" stop-color="#B5D559"/>
      <stop offset="0.721" stop-color="#B2D34C"/>
      <stop offset="0.7595" stop-color="#B1D244"/>
      <stop offset="0.8346" stop-color="#AFD243"/>
      <stop offset="0.8525" stop-color="#BCD747"/>
      <stop offset="0.8812" stop-color="#C8DB4B"/>
      <stop offset="0.919" stop-color="#D1DE4C"/>
      <stop offset="1" stop-color="#D2DF4E"/>
    </linearGradient>
    <linearGradient id="paint32_linear_436_5194" x1="56.8303" y1="52.7274" x2="360.295" y2="80.3742" gradientUnits="userSpaceOnUse">
      <stop stop-color="#06718A"/>
      <stop offset="0.0834" stop-color="#08768E"/>
      <stop offset="0.1776" stop-color="#0F8398"/>
      <stop offset="0.277" stop-color="#1199AA"/>
      <stop offset="0.3794" stop-color="#13B7C3"/>
      <stop offset="0.3816" stop-color="#16B8C4"/>
      <stop offset="0.3851" stop-color="#17AEBC"/>
      <stop offset="0.3953" stop-color="#0B93A7"/>
      <stop offset="0.4071" stop-color="#0E7D96"/>
      <stop offset="0.4208" stop-color="#0A6D89"/>
      <stop offset="0.4378" stop-color="#0B6280"/>
      <stop offset="0.4617" stop-color="#055B7A"/>
      <stop offset="0.5279" stop-color="#065978"/>
      <stop offset="0.5382" stop-color="#297475"/>
      <stop offset="0.5511" stop-color="#508F73"/>
      <stop offset="0.565" stop-color="#71A771"/>
      <stop offset="0.5797" stop-color="#8CBB6F"/>
      <stop offset="0.5956" stop-color="#A1CA6D"/>
      <stop offset="0.6133" stop-color="#B0D46C"/>
      <stop offset="0.6343" stop-color="#B9D76D"/>
      <stop offset="0.6665" stop-color="#BCD86E"/>
      <stop offset="0.691" stop-color="#B5D559"/>
      <stop offset="0.721" stop-color="#B2D34C"/>
      <stop offset="0.7595" stop-color="#B1D244"/>
      <stop offset="0.8346" stop-color="#AFD243"/>
      <stop offset="0.8525" stop-color="#BCD747"/>
      <stop offset="0.8812" stop-color="#C8DB4B"/>
      <stop offset="0.919" stop-color="#D1DE4C"/>
      <stop offset="1" stop-color="#D2DF4E"/>
    </linearGradient>
    <linearGradient id="paint33_linear_436_5194" x1="59.1997" y1="49.3755" x2="354.262" y2="76.2568" gradientUnits="userSpaceOnUse">
      <stop stop-color="#06718A"/>
      <stop offset="0.0834" stop-color="#08768E"/>
      <stop offset="0.1776" stop-color="#0F8398"/>
      <stop offset="0.277" stop-color="#1199AA"/>
      <stop offset="0.3794" stop-color="#13B7C3"/>
      <stop offset="0.3816" stop-color="#16B8C4"/>
      <stop offset="0.3851" stop-color="#17AEBC"/>
      <stop offset="0.3953" stop-color="#0B93A7"/>
      <stop offset="0.4071" stop-color="#0E7D96"/>
      <stop offset="0.4208" stop-color="#0A6D89"/>
      <stop offset="0.4378" stop-color="#0B6280"/>
      <stop offset="0.4617" stop-color="#055B7A"/>
      <stop offset="0.5279" stop-color="#065978"/>
      <stop offset="0.5382" stop-color="#297475"/>
      <stop offset="0.5511" stop-color="#508F73"/>
      <stop offset="0.565" stop-color="#71A771"/>
      <stop offset="0.5797" stop-color="#8CBB6F"/>
      <stop offset="0.5956" stop-color="#A1CA6D"/>
      <stop offset="0.6133" stop-color="#B0D46C"/>
      <stop offset="0.6343" stop-color="#B9D76D"/>
      <stop offset="0.6665" stop-color="#BCD86E"/>
      <stop offset="0.691" stop-color="#B5D559"/>
      <stop offset="0.721" stop-color="#B2D34C"/>
      <stop offset="0.7595" stop-color="#B1D244"/>
      <stop offset="0.8346" stop-color="#AFD243"/>
      <stop offset="0.8525" stop-color="#BCD747"/>
      <stop offset="0.8812" stop-color="#C8DB4B"/>
      <stop offset="0.919" stop-color="#D1DE4C"/>
      <stop offset="1" stop-color="#D2DF4E"/>
    </linearGradient>
    <linearGradient id="paint34_linear_436_5194" x1="59.0185" y1="56.5593" x2="351.684" y2="83.2217" gradientUnits="userSpaceOnUse">
      <stop stop-color="#06718A"/>
      <stop offset="0.0834" stop-color="#08768E"/>
      <stop offset="0.1776" stop-color="#0F8398"/>
      <stop offset="0.277" stop-color="#1199AA"/>
      <stop offset="0.3794" stop-color="#13B7C3"/>
      <stop offset="0.3816" stop-color="#16B8C4"/>
      <stop offset="0.3851" stop-color="#17AEBC"/>
      <stop offset="0.3953" stop-color="#0B93A7"/>
      <stop offset="0.4071" stop-color="#0E7D96"/>
      <stop offset="0.4208" stop-color="#0A6D89"/>
      <stop offset="0.4378" stop-color="#0B6280"/>
      <stop offset="0.4617" stop-color="#055B7A"/>
      <stop offset="0.5279" stop-color="#065978"/>
      <stop offset="0.5382" stop-color="#297475"/>
      <stop offset="0.5511" stop-color="#508F73"/>
      <stop offset="0.565" stop-color="#71A771"/>
      <stop offset="0.5797" stop-color="#8CBB6F"/>
      <stop offset="0.5956" stop-color="#A1CA6D"/>
      <stop offset="0.6133" stop-color="#B0D46C"/>
      <stop offset="0.6343" stop-color="#B9D76D"/>
      <stop offset="0.6665" stop-color="#BCD86E"/>
      <stop offset="0.691" stop-color="#B5D559"/>
      <stop offset="0.721" stop-color="#B2D34C"/>
      <stop offset="0.7595" stop-color="#B1D244"/>
      <stop offset="0.8346" stop-color="#AFD243"/>
      <stop offset="0.8525" stop-color="#BCD747"/>
      <stop offset="0.8812" stop-color="#C8DB4B"/>
      <stop offset="0.919" stop-color="#D1DE4C"/>
      <stop offset="1" stop-color="#D2DF4E"/>
    </linearGradient>
  </defs>
</svg>